<?xml version="1.0" standalone="no"?>
<!DOCTYPE svg PUBLIC "-//W3C//DTD SVG 1.1//EN" "http://www.w3.org/Graphics/SVG/1.1/DTD/svg11.dtd" >
<svg>
<metadata>
Created by FontForge 20090914 at Tue May 15 01:05:14 2012
 By www-data
4.1 Copyright 1992 Software Complement                                                                
</metadata>
<defs>
<font id="FletcherGothicFLF" horiz-adv-x="402" >
  <font-face 
    font-family="FletcherGothicFLF"
    font-weight="500"
    font-stretch="normal"
    units-per-em="1000"
    panose-1="2 0 6 6 8 0 0 2 0 3"
    ascent="800"
    descent="-200"
    x-height="444"
    cap-height="667"
    bbox="-291 -367 1104 916"
    underline-thickness="50"
    underline-position="-75"
    unicode-range="U+0005-U+E00A"
  />
<missing-glyph horiz-adv-x="500" 
 />
    <glyph glyph-name=".notdef" horiz-adv-x="500" 
 />
    <glyph glyph-name="breve" horiz-adv-x="404" 
d="M189 461q-29 0 -56 -8t-47.5 -23t-32.5 -37t-12 -50q0 -36 21 -57.5t52 -35t67.5 -22t67.5 -18.5t52 -25.5t21 -43.5q0 -29 -10.5 -48t-27.5 -30.5t-39 -16.5t-45 -5q-14 0 -34.5 3.5t-39 12.5t-31.5 23.5t-13 36.5q0 19 12.5 30t29.5 11t31.5 -10t24.5 -21v61
q0 10 -16.5 19t-39.5 9q-18 0 -36 -6.5t-32.5 -19t-23 -31t-8.5 -42.5q0 -37 15.5 -62.5t40.5 -41.5t56.5 -23t63.5 -7q35 0 67.5 9.5t57.5 29t40 49t15 70.5t-21 66t-52 40.5t-67.5 24.5t-67.5 17.5t-52 20.5t-21 33q0 16 7.5 27t20 18.5t29 11t33.5 3.5q18 0 37 -4.5
t34.5 -13t27 -21.5t14.5 -30q13 17 28.5 33t31.5 29q-15 3 -29.5 13.5t-33.5 22t-45.5 20.5t-64.5 9z" />
    <glyph glyph-name="dotaccent" horiz-adv-x="480" 
d="M456 128q-27 -30 -61.5 -48t-70.5 -18h-186l16.5 45t11.5 74q0 33 -12.5 65t-27.5 65.5t-27.5 71t-12.5 81.5q0 25 7.5 52.5t24 51t42.5 38.5t63 15q28 0 48 -7.5t33.5 -18t21.5 -21.5t12 -18q14 17 28.5 29t28.5 22q-13 13 -31.5 26.5t-41 24.5t-47.5 18t-52 7
q-43 0 -79.5 -18t-63 -48t-41.5 -70t-15 -83q0 -48 12.5 -87t27.5 -72.5t27.5 -65t12.5 -64.5q0 -35 -7.5 -62t-19.5 -47.5t-26 -36.5t-27 -29h392z" />
    <glyph glyph-name="ring" horiz-adv-x="148" 
d="M74 717q-21 0 -35.5 -14.5t-14.5 -35.5t14.5 -35.5t35.5 -14.5t35.5 14.5t14.5 35.5t-14.5 35.5t-35.5 14.5zM99 667q0 -11 -7 -18t-18 -7t-18 7t-7 18t7 18t18 7t18 -7t7 -18z" />
    <glyph glyph-name="caron" horiz-adv-x="442" 
d="M21 194h400v307l-93 93h-307v-400zM380 392q0 55 -35 99l-34 -34q8 -11 15 -26.5t7 -38.5q0 -16 -5.5 -34t-16.5 -32l34 -33q19 21 27 47.5t8 51.5zM174 495q-35 -17 -50 -46.5t-15 -56.5q0 -32 12 -53t28 -34t31.5 -18t22.5 -5q19 0 31 12t12 24q0 20 -13 33
q-10 10 -31 24.5t-32 26.5q-10 11 -14.5 24t-4.5 25q0 29 23 44zM270 382q-13 14 -33 28t-28 23q-6 8 -9.5 14t-3.5 16q0 14 10.5 25.5t30.5 11.5q8 0 19.5 -4t29.5 -14l34 34q-23 19 -48.5 27t-50.5 8q-33 0 -62 -12.5t-50.5 -34t-34 -50.5t-12.5 -62t12.5 -62t34 -50.5
t50.5 -34t62 -12.5q26 0 50.5 8t47.5 26l-35 35q-5 -3 -8.5 -5.5t-11.5 -6.5q13 6 19 19t6 25q0 11 -4 23t-15 25zM26 589h300l90 -90v-300h-390v390zM374 392q0 -57 -30 -92l-26 27q11 14 15.5 31t4.5 34q0 22 -6 36.5t-14 28.5l27 26q17 -23 23 -47t6 -44zM165 399
q2 -2 7 -6.5t22 -17.5l22 -17t13 -11q5 -7 8.5 -13.5t3.5 -15.5q0 -11 -11.5 -20.5t-26.5 -9.5q-12 0 -29.5 7.5t-30.5 21.5q-14 14 -21 32t-7 43q0 21 8.5 43t25.5 37q-2 -5 -2.5 -10.5t-0.5 -10.5q0 -13 4 -25.5t15 -26.5zM266 379q10 -14 14 -24t4 -21q0 -14 -6.5 -24
t-15 -17t-16.5 -10.5t-12 -4.5q20 3 33 9t17 8l27 -27q-23 -17 -46.5 -23t-43.5 -6q-32 0 -60 12t-49 32.5t-33 48.5t-12 60t12 60t33 49t49 33t60 12q23 0 46 -6.5t46 -23.5l-28 -28q-11 8 -25 12.5t-22 4.5q-19 0 -33.5 -11t-14.5 -31q0 -8 3 -16t12 -17q7 -7 15 -13.5
t13 -9.5q18 -13 24.5 -19.5z" />
    <glyph glyph-name="dotlessi" unicode="&#xd;" horiz-adv-x="158" 
d="M108 382q0 34 17 62h-92q17 -28 17 -62v-320q0 -34 -17 -62h92q-17 28 -17 62v320z" />
    <glyph glyph-name="fraction" horiz-adv-x="758" 
d="M130 683l-56 -41q9 -6 10.5 -19.5t1.5 -27.5v-205q0 -26 -12 -47h69q-13 20 -13 47v293zM522 678l-36 25l-465 -703l35 -26zM693 137q0 -23 -8 -43t-22 -35t-33.5 -23.5t-42.5 -8.5t-42.5 8.5t-33.5 23.5t-22 35t-8 43q0 24 8.5 44t22.5 35t33.5 23t41.5 8t41.5 -8
t33.5 -23t22.5 -35t8.5 -44zM669 384q0 -17 -6.5 -32.5t-18 -27.5t-26.5 -19t-31 -7q-35 0 -58.5 25.5t-23.5 60.5t24 58t58 23q32 0 57 -23t25 -58zM657 279q20 13 38 37.5t18 67.5q0 26 -9 48.5t-25.5 39.5t-40 26.5t-51.5 9.5t-51.5 -9.5t-40 -26.5t-25.5 -39.5t-9 -48.5
q0 -43 18 -67.5t38 -37.5q-11 -7 -25 -19t-26 -30t-20.5 -41.5t-8.5 -51.5q0 -32 11 -60t30.5 -49t47 -33t61.5 -12t61.5 13t47 34t30.5 49t11 58q0 28 -8.5 51.5t-20.5 41.5t-26 30t-25 19z" />
    <glyph glyph-name="fi" horiz-adv-x="459" 
d="M351 641l-43 76q-40 -8 -77.5 -27.5t-66 -51.5t-45.5 -76t-17 -101v-17h-81v-58h81v-444q0 -56 -8.5 -91t-21.5 -55.5t-27 -29.5t-24 -12q14 -15 21 -36t7 -43l31 24t37 44.5t30.5 77t12.5 121.5v444h191v-324q0 -34 -17 -62h92q-17 28 -17 62v320q0 34 17 62h-266v17
q0 34 11.5 67t32 58.5t49 41.5t63.5 16q8 0 17 -1t17 -3q-7 -6 -11.5 -14.5t-4.5 -19.5q0 -20 13.5 -33t32.5 -13t32.5 13t13.5 33q0 19 -13.5 32.5t-32.5 13.5q-16 0 -29 -11z" />
    <glyph glyph-name="fl" horiz-adv-x="458" 
d="M350 444h-190v17q0 34 11.5 67t32 58.5t49 41.5t63.5 16q18 0 36 -5l-44 78q-40 -8 -77.5 -27.5t-66 -51.5t-45.5 -76t-17 -101v-17h-81v-58h81v-444q0 -56 -8.5 -91t-21.5 -55.5t-27 -29.5t-24 -12q14 -15 21 -36t7 -43l31 24t37 44.5t30.5 77t12.5 121.5v444h190v-324
q0 -34 -17 -62h92q-8 14 -13 29.5t-4 32.5v597l-75 -55q7 -6 12 -21.5t5 -43.5v-95z" />
    <glyph glyph-name="Lslash" horiz-adv-x="384" 
d="M147 282v-220q0 -20 -5 -35.5t-12 -26.5q7 0 17 -0.5t21 -2l21.5 -3t18.5 -4.5q49 -16 92.5 -48l92.5 -71t108.5 -81t142.5 -78q10 46 20.5 73l19.5 51q-6 -8 -17.5 -19t-28.5 -11q-32 0 -62 13t-59 33t-57 44l-56 46q-42 33 -70.5 52t-49.5 30.5t-38 18l-37 13.5v226h86
q0 19 10 38t30 42l-39 -11.5t-60 -6.5h-27v261q0 34 17 62h-96q17 -28 17 -62v-261h-86q0 -28 -10 -47t-30 -33l39 11.5t60 6.5h27z" />
    <glyph glyph-name="lslash" horiz-adv-x="356" 
d="M151 282v-220q0 -34 -17 -62h92q-8 14 -13 29.5t-4 32.5v220h86q0 19 10 37.5t30 38.5l-39 -11.5t-60 -6.5h-27v319l-75 -55q7 -6 12 -21.5t5 -43.5v-199h-90q0 -47 -40 -76l39 11.5t60 6.5h31z" />
    <glyph glyph-name="Zcaron" horiz-adv-x="506" 
d="M140 62l326 605h-367l-30 -115l24.5 23t20.5 17t20 10t24 3h192l-326 -605h427l31 118l-19.5 -20t-20.5 -18t-23.5 -13t-27.5 -5h-251zM253 817q-21 0 -34.5 6.5t-20.5 15.5t-9.5 17t-2.5 11v-50q0 -3 2.5 -11t9.5 -17t20.5 -15.5t34.5 -6.5t34.5 6.5t20.5 15.5t9.5 17
t2.5 11v50q0 -3 -2.5 -11t-9.5 -17t-20.5 -15.5t-34.5 -6.5z" />
    <glyph glyph-name="zcaron" horiz-adv-x="371" 
d="M132 58l218 386h-271l-19 -107h1q17 20 37.5 34.5t46.5 14.5h94l-218 -386h297l21 110q-20 -21 -39.5 -36.5t-47.5 -15.5h-120zM185 600q-21 0 -34.5 6.5t-20.5 15.5t-9.5 17t-2.5 11v-50q0 -3 2.5 -11t9.5 -17t20.5 -15.5t34.5 -6.5t34.5 6.5t20.5 15.5t9.5 17t2.5 11
v50q0 -3 -2.5 -11t-9.5 -17t-20.5 -15.5t-34.5 -6.5z" />
    <glyph glyph-name="space" unicode=" " horiz-adv-x="267" 
 />
    <glyph glyph-name="exclam" unicode="!" horiz-adv-x="166" 
d="M52 300v-167h62v167q0 151 8 243t11 124h-100q3 -32 11 -124t8 -243zM125 50q0 19 -11.5 34.5t-30.5 15.5q-20 0 -31 -15.5t-11 -34.5t11 -34.5t31 -15.5q19 0 30.5 15.5t11.5 34.5z" />
    <glyph glyph-name="quotedbl" unicode="&#x22;" horiz-adv-x="237" 
d="M76 533q0 21 2.5 44t7 44t9 38.5t9.5 29.5q-9 -8 -20 -12.5t-22 -6.5t-21 -2.5t-17 -0.5q1 -9 5 -23t7.5 -31.5t6.5 -38t3 -41.5h30zM185 533q0 21 2.5 44t7 44t9 38.5t9.5 29.5q-9 -8 -20 -12.5t-22 -6.5t-21 -2.5t-17 -0.5q1 -9 5 -23t7.5 -31.5t6.5 -38t3 -41.5h30z
" />
    <glyph glyph-name="numbersign" unicode="#" horiz-adv-x="608" 
d="M199 349l-45 -169l16.5 13t16.5 10t20 6t27 2q-3 7 -5 15t-2 19q0 13 4 30l18 74h66l-45 -169l16.5 13t16.5 10t20 6t27 2q-3 7 -5 15t-2 19q0 13 4 30l18 74h76q17 0 35 -7t26 -15q4 15 9 25.5t11 18t13.5 13.5t17.5 13h-175l16 65h76q17 0 35 -7t26 -15q4 15 9 25.5
t11 18t13.5 13l17.5 12.5h-175l45 169q-18 -15 -33.5 -23t-46.5 -8q3 -7 5 -15t2 -19q0 -13 -4 -30l-18 -74h-66l45 169q-18 -15 -33.5 -23t-46.5 -8q3 -7 5 -15t2 -19q0 -13 -4 -30l-18 -74h-76q-17 0 -32.5 4.5t-28.5 17.5q-4 -15 -9 -25.5t-11 -18t-13.5 -13.5t-17.5 -13
h175l-16 -65h-76q-17 0 -32.5 4.5t-28.5 17.5q-4 -15 -9 -25.5t-11 -18t-13.5 -13l-17.5 -12.5h175zM278 461h67l-9 -33l-8 -32h-67z" />
    <glyph glyph-name="dollar" unicode="$" horiz-adv-x="306" 
d="M122 458q-10 6 -25 19.5t-15 37.5q0 14 4.5 23t11 15t13.5 9t11 5v-109zM160 379q64 -30 64 -94q0 -35 -13 -62.5t-51 -53.5v210zM160 108q57 32 89.5 77t32.5 100q0 29 -9 51.5t-25.5 40t-39 32.5t-48.5 29v129q16 -2 33.5 -14.5t29.5 -38.5q0 30 10.5 44t19.5 24
q-13 4 -22 10.5t-19 12.5t-22 11.5t-30 8.5v42h-38v-42q-16 -1 -33.5 -9t-31.5 -22t-23.5 -33.5t-9.5 -44.5q0 -21 8 -38t21.5 -31t31.5 -26t37 -22v-253q-18 -10 -39.5 -20.5l-43.5 -20.5t-43.5 -17.5t-38.5 -10.5q6 -8 13.5 -23t10.5 -35l33.5 14l38 17t37.5 18.5l32 17.5
v-86h38v108z" />
    <glyph glyph-name="percent" unicode="%" horiz-adv-x="563" 
d="M132 397q26 0 46.5 12.5t34 32.5t20.5 46t7 52t-7 51.5t-20.5 46t-34 33t-46.5 12.5t-46.5 -12.5t-34 -33t-20.5 -46t-7 -51.5t7 -52t20.5 -46t34 -32.5t46.5 -12.5zM132 625q15 0 25.5 -8t17.5 -20t10.5 -27t3.5 -30t-3.5 -30t-10.5 -27t-17.5 -20t-25.5 -8t-25.5 8
t-17.5 20t-10.5 27t-3.5 30t3.5 30t10.5 27t17.5 20t25.5 8zM431 -17q26 0 46.5 12.5t34 32.5t20.5 46t7 52t-7 51.5t-20.5 46t-34 33t-46.5 12.5t-46.5 -12.5t-34 -33t-20.5 -46t-7 -51.5t7 -52t20.5 -46t34 -32.5t46.5 -12.5zM431 211q15 0 25.5 -8t17.5 -20t10.5 -27
t3.5 -30t-3.5 -30t-10.5 -27t-17.5 -20t-25.5 -8t-25.5 8t-17.5 20t-10.5 27t-3.5 30t3.5 30t10.5 27t17.5 20t25.5 8zM539 667l-50 36l-465 -703l49 -37z" />
    <glyph glyph-name="ampersand" unicode="&#x26;" horiz-adv-x="548" 
d="M258 347q-33 4 -64 12.5t-55 26.5t-38.5 46.5t-14.5 71.5q0 32 11.5 54t31 36t45.5 20.5t55 6.5q26 0 44 -5t38 -16v83h-82q-97 0 -151 -49.5t-54 -129.5q0 -44 11 -74t26 -50t31 -31.5l26 -18.5q-29 -30 -47 -66t-18 -81q0 -51 20 -88.5t52.5 -62t74 -37t83.5 -12.5
q41 0 79.5 13.5t68.5 37.5t48 58t18 75q0 19 -5.5 34.5t-12 27t-13 19t-9.5 11.5q-4 5 -3 9.5t5 7.5l23.5 21t20.5 22.5t15 31t6 45.5q0 28 -10 51.5t-22.5 40.5t-24 27.5t-14.5 12.5q-5 3 -11.5 -4.5t-12.5 -12.5q-6 -7 -14.5 -14t-4.5 -12q3 -4 11.5 -11t17.5 -17.5
t16 -25t7 -35.5q0 -35 -18.5 -57t-39.5 -35.5t-37 -20.5t-10 -10q11 -7 24.5 -17.5t25 -23.5t19.5 -29.5t9 -35.5q1 -29 -11.5 -51.5t-34.5 -38t-50 -24t-56 -8.5q-30 0 -60 7.5t-54 24t-39 42.5t-15 64q0 24 6 43t15 34t19 26t19 19q16 -7 33.5 -12t37.5 -5z" />
    <glyph glyph-name="quotesingle" unicode="'" horiz-adv-x="128" 
d="M76 533q0 21 2.5 44t7 44t9 38.5t9.5 29.5q-9 -8 -20 -12.5t-22 -6.5t-21 -2.5t-17 -0.5q1 -9 5 -23t7.5 -31.5t6.5 -38t3 -41.5h30z" />
    <glyph glyph-name="parenleft" unicode="(" horiz-adv-x="264" 
d="M195 -41l45 41q-6 6 -31 26t-52 59t-49 100t-22 148q0 88 22 149t49 100t52 59t31 26l-45 41l-42.5 -40.5t-57 -72.5t-50 -109.5t-21.5 -152.5q0 -87 21.5 -152t50 -110t57 -72z" />
    <glyph glyph-name="parenright" unicode=")" horiz-adv-x="264" 
d="M69 -41l42.5 40t57 72t50 110t21.5 152q0 88 -21.5 152.5t-50 109.5t-57 72.5l-42.5 40.5l-45 -41q6 -6 31 -26t52 -59t49 -100t22 -149q0 -87 -22 -148t-49 -100t-52 -59t-31 -26z" />
    <glyph glyph-name="asterisk" unicode="*" horiz-adv-x="546" 
d="M205 368l-47 -80q-5 -10 -17.5 -23l-21.5 -22q22 3 40.5 4t41.5 -13l42 112h60l46 -80q6 -10 11 -27.5t8 -29.5q8 20 17 36.5t32 29.5l-76 93l30 52h93q11 0 28.5 -4.5l29.5 -7.5q-14 17 -23.5 33t-9.5 42l-118 -19l-30 52l47 80q5 10 17.5 23l21.5 22q-22 -3 -40.5 -4
t-41.5 13l-42 -112h-60l-46 80q-6 10 -11 27.5t-8 29.5q-8 -20 -17 -36.5t-32 -29.5l76 -93l-30 -52h-93q-11 0 -28.5 4.5l-29.5 7.5q14 -17 23.5 -33t9.5 -42l118 19z" />
    <glyph glyph-name="plus" unicode="+" horiz-adv-x="356" 
d="M203 358v92q-39 0 -68 40l11.5 -39t6.5 -60v-33h-92q0 -39 -40 -68l39 11.5t60 6.5h33v-92q39 0 68 -40l-11.5 39t-6.5 60v33h92q0 39 40 68l-39 -11.5t-60 -6.5h-33z" />
    <glyph glyph-name="comma" unicode="," horiz-adv-x="132" 
d="M66 0q4 0 4 -4q0 -3 -4.5 -9t-11.5 -12.5l-15 -13.5t-15 -11l14 -21q70 47 70 121q0 19 -11.5 34.5t-30.5 15.5q-20 0 -31 -15.5t-11 -34.5t11.5 -34.5t30.5 -15.5z" />
    <glyph glyph-name="hyphen" unicode="-" horiz-adv-x="362" 
d="M298 308q0 39 40 68l-39 -11.5t-60 -6.5h-175q0 -39 -40 -68l39 11.5t60 6.5h175z" />
    <glyph glyph-name="period" unicode="." horiz-adv-x="132" 
d="M108 50q0 19 -11.5 34.5t-30.5 15.5q-20 0 -31 -15.5t-11 -34.5t11 -34.5t31 -15.5q19 0 30.5 15.5t11.5 34.5z" />
    <glyph glyph-name="slash" unicode="/" horiz-adv-x="539" 
d="M527 667l-50 36l-465 -703l49 -37z" />
    <glyph glyph-name="zero" unicode="0" 
d="M201 -17q44 0 77.5 21t56.5 55t34.5 76.5t11.5 86.5t-11.5 87t-34.5 76.5t-56.5 54.5t-77.5 21t-77.5 -21t-56.5 -54.5t-34.5 -76.5t-11.5 -87t11.5 -86.5t34.5 -76.5t56.5 -55t77.5 -21zM201 403q31 0 54 -16.5t38 -42.5t22.5 -58.5t7.5 -63.5t-7.5 -63t-22.5 -58
t-38 -42.5t-54 -16.5t-54 16.5t-38 42.5t-22.5 58t-7.5 63t7.5 63.5t22.5 58.5t38 42.5t54 16.5z" />
    <glyph glyph-name="one" unicode="1" horiz-adv-x="158" 
d="M108 453l-75 -55q12 -8 14.5 -26.5t2.5 -35.5v-274q0 -34 -17 -62h92q-17 28 -17 62v391z" />
    <glyph glyph-name="two" unicode="2" horiz-adv-x="370" 
d="M323 0l22 114h-2q-6 -9 -14.5 -18.5t-19 -18t-23 -14t-26.5 -5.5h-116l77 65t65.5 64t45.5 64.5t17 66.5q0 38 -12.5 65t-33 44.5t-46.5 25.5t-52 8q-47 0 -89.5 -24.5t-69.5 -63.5l52 -49q5 16 13.5 30t21.5 25t30.5 17.5t41.5 6.5q35 0 60.5 -21.5t25.5 -63.5
q0 -30 -21 -62t-50.5 -61t-60 -54l-49.5 -41l-24.5 -19.5t-30.5 -26t-26 -26.5t-11 -20q0 -8 14 -8h291z" />
    <glyph glyph-name="three" unicode="3" horiz-adv-x="395" 
d="M229 147q21 13 42.5 29.5t39.5 37t29 45t11 54.5q0 40 -14 68t-36 46t-47.5 26t-49.5 8q-55 0 -93.5 -20.5t-58.5 -46.5l53 -52q12 27 35.5 44t63.5 17q16 0 32 -5.5t29 -16.5t20.5 -28t7.5 -40q0 -24 -12 -45t-34.5 -41t-54 -39.5t-71.5 -40.5v-67q12 8 29 16t31 8
q29 0 53.5 -14.5t42.5 -38.5t28.5 -55t10.5 -63q0 -34 -9 -67.5t-27 -60t-44.5 -43t-61.5 -16.5q-24 0 -43 6.5t-35 17t-27.5 23t-20.5 23.5l-30 -56l21.5 -20.5t33 -24t44.5 -19.5t57 -8q47 0 84.5 21t63 55.5t39 78.5t13.5 90q0 50 -13 88.5t-34 65.5t-47 42t-51 18z" />
    <glyph glyph-name="four" unicode="4" horiz-adv-x="390" 
d="M294 0h75v58h-75v226l-58 -58v-168h-135l59 118l46.5 100.5l42.5 99.5l48 116l-91 -48q-9 -27 -26.5 -74t-42.5 -106.5t-57 -127t-68 -136.5h224v-259l58 -40v299z" />
    <glyph glyph-name="five" unicode="5" horiz-adv-x="416" 
d="M18 -251q10 -9 26 -19.5t36.5 -20t43 -15.5t44.5 -6q43 0 81.5 15.5t67 44.5t45 72t16.5 99q0 63 -18 108.5t-47 75t-64.5 43.5t-69.5 14q-18 0 -31 -4l50 230h197v58h-242l-82 -354q16 5 40.5 9t56.5 4q37 0 65.5 -14.5t48 -40t29 -59t9.5 -70.5q0 -89 -43 -131
t-109 -42q-17 0 -33 5.5t-30.5 13.5t-27 17.5t-21.5 17.5z" />
    <glyph glyph-name="six" unicode="6" 
d="M201 41q-31 0 -54 16.5t-38 43t-22.5 58.5t-7.5 63t7.5 63t22.5 58.5t38 43t54 16.5t54 -16.5t38 -43t22.5 -58.5t7.5 -63t-7.5 -63t-22.5 -58.5t-38 -43t-54 -16.5zM122 438q37 65 88 118t116 92l-17 74q-64 -48 -123.5 -108.5t-104.5 -142.5q-29 -53 -44.5 -113
t-15.5 -136q0 -44 11.5 -87t34.5 -76.5t56.5 -54.5t77.5 -21t77.5 21t56.5 54.5t34.5 76.5t11.5 87t-11.5 87t-34.5 76.5t-56.5 54.5t-77.5 21q-26 0 -44 -6t-35 -17z" />
    <glyph glyph-name="seven" unicode="7" horiz-adv-x="372" 
d="M43 444l-19 -84q16 12 33.5 19t41.5 7h176q-37 -95 -65 -177t-50.5 -158t-41.5 -148.5l-38 -146.5l61 -44q16 82 35.5 170.5t46 181t61 188t82.5 192.5h-323z" />
    <glyph glyph-name="eight" unicode="8" horiz-adv-x="448" 
d="M366 188q0 -30 -10.5 -56.5t-29.5 -46.5t-45 -32t-57 -12t-57 12t-45 32t-29.5 46.5t-10.5 56.5q0 32 11 59t30.5 46.5t45 30.5t55.5 11t55.5 -11t45 -30.5t30.5 -46.5t11 -59zM334 518q0 -23 -9 -44t-24 -37t-35 -25t-42 -9q-23 0 -43 9t-35 25t-23.5 37t-8.5 44
t8.5 42.5t23.5 34t35 22.5t43 8q21 0 41 -8t35.5 -22.5t24.5 -34t9 -42.5zM317 377q13 9 26.5 21t24 29t17.5 39.5t7 51.5q0 34 -12 64.5t-34.5 52.5t-53.5 35t-68 13q-38 0 -68.5 -13t-53 -35t-34.5 -52.5t-12 -64.5q0 -29 7 -51.5t17.5 -39.5t24 -29t26.5 -21
q-15 -9 -33.5 -25t-35 -40t-27.5 -55t-11 -69q0 -43 14.5 -80.5t40.5 -65t63 -43.5t82 -16t82 17t63 45.5t40.5 65.5t14.5 77q0 38 -11 69t-27.5 55t-35 40t-33.5 25z" />
    <glyph glyph-name="nine" unicode="9" 
d="M201 403q31 0 54 -16.5t38 -42.5t22.5 -58.5t7.5 -63.5t-7.5 -63t-22.5 -58.5t-38 -43t-54 -16.5t-54 16.5t-38 43t-22.5 58.5t-7.5 63t7.5 63.5t22.5 58.5t38 42.5t54 16.5zM381 222q0 44 -11.5 87t-34.5 76.5t-56.5 54.5t-77.5 21t-77.5 -21t-56.5 -54.5t-34.5 -76.5
t-11.5 -87t11.5 -86.5t34.5 -76.5t56.5 -55t77.5 -21q26 0 46 7t37 20q-13 -36 -35 -75.5t-50.5 -76t-63.5 -69t-74 -55.5l22 -69q32 23 66.5 53t67 67.5t61.5 82.5t51 96q21 49 36.5 110t15.5 148z" />
    <glyph glyph-name="colon" unicode=":" horiz-adv-x="180" 
d="M132 394q0 19 -11.5 34.5t-30.5 15.5q-20 0 -31 -15.5t-11 -34.5t11 -34.5t31 -15.5q19 0 30.5 15.5t11.5 34.5zM132 50q0 19 -11.5 34.5t-30.5 15.5q-20 0 -31 -15.5t-11 -34.5t11 -34.5t31 -15.5q19 0 30.5 15.5t11.5 34.5z" />
    <glyph glyph-name="semicolon" unicode=";" horiz-adv-x="180" 
d="M90 0q4 0 4 -4q0 -3 -4.5 -9t-11.5 -12.5l-15 -13.5t-15 -11l14 -21q70 47 70 121q0 19 -11.5 34.5t-30.5 15.5q-20 0 -31 -15.5t-11 -34.5t11.5 -34.5t30.5 -15.5zM132 394q0 19 -11.5 34.5t-30.5 15.5q-20 0 -31 -15.5t-11 -34.5t11 -34.5t31 -15.5q19 0 30.5 15.5
t11.5 34.5z" />
    <glyph glyph-name="less" unicode="&#x3c;" horiz-adv-x="192" 
d="M12 334l156 -156q-4 14 -7.5 21.5t-4.5 24.5q0 5 5 10.5t7 7.5l-90 76q-10 8 -10 16t10 16l90 76q-2 2 -7 7.5t-5 10.5q1 17 4.5 24.5t7.5 21.5z" />
    <glyph glyph-name="equal" unicode="=" horiz-adv-x="338" 
d="M286 358q0 39 40 68l-39 -11.5t-60 -6.5h-175q0 -39 -40 -68l39 11.5t60 6.5h175zM286 258q0 39 40 68l-39 -11.5t-60 -6.5h-175q0 -39 -40 -68l39 11.5t60 6.5h175z" />
    <glyph glyph-name="greater" unicode="&#x3e;" horiz-adv-x="192" 
d="M180 334l-156 156q4 -14 7.5 -21.5t4.5 -24.5q0 -5 -5 -10.5t-7 -7.5l90 -76q10 -8 10 -16t-10 -16l-90 -76q2 -2 7 -7.5t5 -10.5q-1 -17 -4.5 -24.5t-7.5 -21.5z" />
    <glyph glyph-name="question" unicode="?" horiz-adv-x="337" 
d="M150 50q0 19 -11 34.5t-31 15.5q-19 0 -30.5 -15.5t-11.5 -34.5t11.5 -34.5t30.5 -15.5q20 0 31 15.5t11 34.5zM61 582l50 -14.5t63 -27.5t54 -47t23 -73q0 -33 -12.5 -52.5t-30.5 -30t-37.5 -14t-32.5 -3.5h-61v-187h62v125h16q24 0 51.5 9.5t51 29t39.5 50t16 73.5
q0 39 -16 70.5t-41.5 55.5t-57.5 42.5t-64.5 32.5t-62.5 25t-50 21z" />
    <glyph glyph-name="at" unicode="@" horiz-adv-x="371" 
d="M209 250q-8 0 -13 5t-5 14q0 8 7 14.5t18.5 12.5t24.5 11.5t25 11.5l10 5v-74h-67zM74 365q0 28 19.5 47.5t47.5 19.5h113q9 0 15.5 -6.5t6.5 -15.5v-18q0 -12 -21 -21.5l-46.5 -22t-46.5 -31t-21 -48.5q0 -29 20 -49t48 -20h128q-5 7 -8 17t-3 20v173q0 30 -21 51
t-51 21h-113q-24 0 -45.5 -9t-37.5 -25t-25 -37.5t-9 -45.5v-165q0 -24 9 -45.5t25 -37.5t37.5 -25t45.5 -9h136q26 0 40.5 -2.5t29.5 -5.5q-20 6 -26 24.5t-7 33.5h-173q-28 0 -47.5 19.5t-19.5 47.5v165z" />
    <glyph glyph-name="A" unicode="A" horiz-adv-x="452" 
d="M97 232q3 71 11.5 140.5t24.5 125t40 89.5t57 34q28 0 47.5 -16t32.5 -41.5t20.5 -57.5t11.5 -65t5.5 -63t1.5 -51zM-44 -320q19 4 35.5 27t30.5 59t25 82t20 97.5t15 106t10 105.5l261 97l6 -154q1 -17 -1 -32.5t-4.5 -29t-5.5 -23.5t-4 -15h96l-10 42t-9 58
q-5 53 -6.5 116.5t-5 128.5t-12 126t-28 108t-53 75.5t-86.5 28.5q-41 0 -70.5 -22.5t-50.5 -60t-34.5 -85t-22 -97.5t-12 -98t-5.5 -86q-3 -71 -11.5 -150.5t-23.5 -147.5t-38 -116t-54 -56q23 -26 32 -46t16 -38z" />
    <glyph glyph-name="B" unicode="B" horiz-adv-x="513" 
d="M33 0h236q23 0 60.5 3.5t73.5 19t62.5 47t26.5 86.5q0 37 -11 66t-28.5 51t-38 37.5t-39.5 26t-33.5 16l-19.5 7.5q31 7 52.5 22t34.5 33.5t19 38t6 35.5q0 43 -17.5 73.5t-44.5 50t-60 30.5t-64 16.5t-56.5 6.5t-37.5 1h-121q17 -28 17 -62v-543q0 -34 -17 -62zM160 321
q8 3 14.5 5t20.5 2q24 0 64 -9.5t78 -30t65.5 -52.5t27.5 -76q0 -37 -20.5 -57t-52 -29t-69.5 -10.5t-72 -1.5h-104v543h73q12 0 42.5 -3t63 -14.5t57 -33.5t24.5 -61q0 -23 -12.5 -41t-33 -30.5t-45 -19t-48.5 -6.5q-23 0 -42 6.5t-31 11.5v-93z" />
    <glyph glyph-name="C" unicode="C" horiz-adv-x="454" 
d="M237 683q-39 0 -77 -19t-68 -58t-49 -98t-19 -139q0 -102 31.5 -176t80.5 -133.5t107.5 -110.5t111.5 -105l80 -86t56 -82q16 26 29.5 36.5t38.5 18.5q-44 57 -96 106l-104.5 95.5l-101.5 93.5t-87 99t-61 111.5t-23 132.5q0 60 12.5 107t33.5 79.5t48 49t57 16.5
q20 0 40 -9t36 -22t27 -29t13 -29q16 25 30 37t41 23q-8 6 -24 21t-39.5 30.5t-54.5 27.5t-69 12z" />
    <glyph glyph-name="D" unicode="D" horiz-adv-x="499" 
d="M33 0h135q78 0 136 21t96 59t56.5 92t18.5 120q0 72 -26.5 128.5t-68 99t-92.5 72.5t-100 49t-90.5 29t-64.5 13q8 -17 12.5 -36.5t4.5 -41.5v-543q0 -34 -17 -62zM413 292q0 -69 -20.5 -114t-56.5 -70.5t-85 -35.5t-106 -10h-33v530l28.5 -7t57.5 -20t71 -37t70 -56
t53 -77.5t21 -102.5z" />
    <glyph glyph-name="E" unicode="E" horiz-adv-x="490" 
d="M33 0h406q3 24 11 47.5t16 38.5q-14 -7 -33 -15.5t-48 -8.5h-273v185l151 73q18 8 32 8q10 0 18.5 -5t16.5 -13v126q-10 -14 -21 -23.5t-28 -17.5l-169 -82v292h240q24 0 43 -7.5t36 -15.5q-7 14 -14.5 38t-10.5 47h-373q17 -28 17 -62v-543q0 -34 -17 -62z" />
    <glyph glyph-name="F" unicode="F" horiz-adv-x="454" 
d="M112 213v392h239q24 0 43 -7.5t36 -15.5q-7 14 -14.5 38t-10.5 47h-372q17 -28 17 -62v-790q0 -20 -5.5 -33t-11.5 -24q32 -12 60.5 -34t51.5 -42q-9 36 -21 79t-12 87v299l150 73q18 9 32 9q8 0 15 -3.5t15 -9.5v127q-11 -16 -27.5 -31.5t-47.5 -30.5z" />
    <glyph glyph-name="G" unicode="G" horiz-adv-x="468" 
d="M361 2q-50 16 -99 44t-88 67t-63.5 88.5t-24.5 109.5q0 61 14.5 108t37 82.5t50.5 60t55 40t50 24t35 10.5t29 2.5t35 0.5q-19 23 -25.5 47t-6.5 55q-11 -12 -23.5 -22t-26.5 -15q-57 -21 -109 -55.5t-91 -83t-62.5 -112t-23.5 -142.5q0 -66 21 -119t54 -94.5t74 -72.5
t80.5 -54.5t73 -39t51.5 -26.5q15 -9 24.5 -18t20.5 -23v413q0 21 3.5 35.5t8.5 26.5h-92q6 -12 12 -26.5t6 -35.5v-275z" />
    <glyph glyph-name="H" unicode="H" horiz-adv-x="448" 
d="M398 708q-7 -27 -31 -34t-48 -7q17 -28 17 -62v-214l-224 -83v297q0 34 17 62h-96q17 -28 17 -62v-621q0 -66 -5.5 -108t-15 -69t-22 -42t-26.5 -26q17 -17 27 -36.5t15 -40.5q13 9 28.5 28.5t29 54.5t22.5 88.5t9 131.5v278l224 83v-264q0 -34 -17 -62h96q-17 28 -17 62
v646z" />
    <glyph glyph-name="I" unicode="I" horiz-adv-x="162" 
d="M112 605q0 34 17 62h-96q17 -28 17 -62v-543q0 -34 -17 -62h96q-17 28 -17 62v543z" />
    <glyph glyph-name="J" unicode="J" horiz-adv-x="162" 
d="M112 605q0 34 17 62h-96q17 -28 17 -62v-538q0 -61 -16.5 -109.5t-44 -85.5t-63 -63.5t-73 -43t-75.5 -24t-69 -7.5q27 -14 40 -32t16 -35q17 1 49.5 10t71 28.5t79 50.5t73 77t53.5 108t21 142v522z" />
    <glyph glyph-name="K" unicode="K" horiz-adv-x="486" 
d="M378 -241q43 -13 81.5 -38t75.5 -67l-18.5 43l-24.5 54.5l-25.5 57.5t-19.5 53l-174 555l133 191q12 17 31.5 32.5t39.5 26.5h-168q12 -10 21.5 -25.5t-2.5 -33.5l-216 -319v308q0 22 2 43t9 43q-17 -26 -41.5 -33.5t-48.5 -7.5q17 -28 17 -62v-518q0 -34 -17 -62h96
q-17 28 -17 62v127l122 173l140 -474q5 -19 10 -43t5 -45q0 -14 -2.5 -25t-8.5 -16z" />
    <glyph glyph-name="L" unicode="L" horiz-adv-x="287" 
d="M547 -288q10 46 20.5 73l19.5 51q-6 -8 -17.5 -19t-28.5 -11q-32 0 -62 13t-59 33t-57 44l-56 46q-42 33 -70.5 52t-49.5 30.5t-38 18l-37 13.5v549q0 34 17 62h-96q17 -28 17 -62v-543q0 -20 -5 -35.5t-12 -26.5q7 0 17 -0.5t21 -2l21.5 -3t18.5 -4.5q49 -16 92.5 -48
l92.5 -71t108.5 -81t142.5 -78z" />
    <glyph glyph-name="M" unicode="M" horiz-adv-x="734" 
d="M702 191l-16 109t-18.5 111.5t-25 104t-35.5 86.5t-49.5 59t-67.5 22q-36 0 -59 -9t-36.5 -20.5t-19.5 -22.5t-8 -15q-2 4 -8 15t-19.5 22.5t-36.5 20.5t-59 9q-39 0 -67.5 -22t-49.5 -59t-35.5 -86.5t-25 -104t-18.5 -111.5l-16 -109q-18 -122 -36 -214t-33 -155.5
t-25 -99t-12 -44.5q19 20 33 33t27.5 21t27.5 13t34 8q2 16 3 32l2.5 39.5t4.5 58t9 88.5t15.5 131.5t25.5 185.5q3 23 8 56.5t12.5 70.5t18 74t24.5 66t32 47.5t41 18.5q31 0 49.5 -12.5t28 -30t12 -36.5t2.5 -32v-448q0 -34 -17 -62h96q-17 28 -17 62v448q0 13 2.5 32
t12 36.5t28 30t49.5 12.5q23 0 41 -18.5t32 -47.5t24.5 -66t18 -74t12.5 -70.5t8 -56.5l25 -185.5t16 -131.5t9 -88.5t4.5 -58l2.5 -39.5t3 -32q19 -3 33.5 -8t28 -13t27.5 -21t33 -33q-2 9 -12 44.5t-25 99t-33 155.5t-36 214z" />
    <glyph glyph-name="N" unicode="N" horiz-adv-x="418" 
d="M19 -333q21 20 46.5 35.5t67.5 32.5q-5 14 -13 47t-8 85v623h1l193 -490h62v345q0 89 7 153t18.5 107.5t25 69t26.5 37.5q-17 18 -23.5 35t-11.5 37q-21 -13 -39.5 -44.5t-33 -82.5t-23 -120.5t-8.5 -157.5v-216h-1l-172 433q-9 0 -20.5 1.5t-24.5 6.5t-27 15t-28 27
q3 -23 10.5 -64t7.5 -99v-516q0 -38 -2 -77.5t-6.5 -78.5t-10.5 -76t-13 -68z" />
    <glyph glyph-name="O" unicode="O" horiz-adv-x="518" 
d="M24 333q0 -60 11.5 -122t39 -113t72.5 -83t112 -32t112 32t72.5 83t39 113t11.5 122t-11.5 122t-39 113t-72.5 83t-112 32t-112 -32t-72.5 -83t-39 -113t-11.5 -122zM432 333q0 -50 -7.5 -101t-27 -92.5t-53 -68t-85.5 -26.5t-85.5 26.5t-53 68t-27 92.5t-7.5 101
t7.5 101.5t27 93t53 68t85.5 26.5t85.5 -26.5t53 -68t27 -93t7.5 -101.5z" />
    <glyph glyph-name="P" unicode="P" horiz-adv-x="463" 
d="M189 605q16 0 47 -3.5t62.5 -17.5t55 -41.5t23.5 -74.5q0 -43 -26 -84t-65.5 -78t-86 -69l-87.5 -58v426h77zM112 -203v312q48 30 105 70t106.5 86.5t82.5 98.5t33 107q0 46 -19 82.5t-52.5 61.5t-78.5 38.5t-97 13.5h-159q17 -28 17 -62v-623q0 -64 -3.5 -131
t-13.5 -122q14 16 33.5 34.5t45.5 33.5z" />
    <glyph glyph-name="Q" unicode="Q" horiz-adv-x="518" 
d="M205 216q0 -39 -6.5 -74t-24.5 -71q-31 23 -48.5 58.5t-26.5 74t-11 73.5t-2 56q0 50 7.5 101.5t27 93t53 67.5t85.5 26t85.5 -26t53 -67.5t27 -93t7.5 -101.5t-7.5 -101t-27 -92.5t-53 -67.5t-85.5 -26q-7 0 -12.5 0.5t-13.5 1.5l12.5 28.5l13 30l12.5 27l10 20.5
q-11 1 -22 8.5t-21 17t-18.5 19.5zM80 -134q15 2 41.5 6.5t58.5 4.5q23 0 45 -4t38.5 -13t26.5 -24t10 -37q0 -14 -5 -24.5t-12 -17.5t-14.5 -11t-13.5 -5q20 -14 29.5 -29.5t10.5 -27.5q6 2 17 10t22 22.5t19.5 35t8.5 47.5q0 40 -13.5 65.5t-32.5 40t-38 21t-31 8.5
q-13 2 -31 3t-31 1l23 51q14 -3 25.5 -4.5t25.5 -1.5q67 0 112 32t72.5 83t39 113t11.5 122t-11.5 122t-39 113t-72.5 83t-112 32t-112 -32t-72.5 -83t-39 -113t-11.5 -122q0 -117 34 -199t90 -119z" />
    <glyph glyph-name="R" unicode="R" horiz-adv-x="473" 
d="M287 291q20 0 48 8t53.5 27t43 48.5t17.5 73.5q0 63 -31.5 105.5t-76.5 67.5t-95 35.5t-87 10.5h-126q17 -28 17 -62v-543q0 -34 -17 -62h96q-17 28 -17 62v543h47q34 0 74 -9t74 -28t57 -49t23 -71q0 -29 -12.5 -48t-32 -30t-42 -16t-43.5 -5q-31 0 -60 15.5t-51 43.5
v-128l25.5 5t38.5 3q14 0 18.5 -5.5t8.5 -15.5l144 -376q19 -50 26.5 -91.5t9.5 -55.5q46 -24 79.5 -45.5t59.5 -44.5q-6 10 -15 27.5l-19.5 37.5t-20 40t-15.5 35z" />
    <glyph glyph-name="S" unicode="S" horiz-adv-x="448" 
d="M24 500q0 -56 25 -91t62.5 -59.5t81.5 -44t81.5 -43t62.5 -57.5t25 -88q0 -59 -30.5 -108t-78 -88.5t-105.5 -70t-111.5 -51.5t-97 -33t-62.5 -14q17 -15 27.5 -32t12.5 -45l89 38t108.5 50.5t112 64t99.5 79.5t71 96t27 114q0 64 -25 105.5t-62.5 69t-81.5 47
t-81.5 40.5t-62.5 48.5t-25 72.5q0 55 27 88t78 33q43 0 71.5 -21.5t50.5 -70.5q11 29 29 47.5t36 32.5q-24 9 -44 21.5l-40.5 24.5t-45 20t-57.5 8q-40 0 -71 -14.5t-52.5 -39t-32.5 -58t-11 -71.5z" />
    <glyph glyph-name="T" unicode="T" horiz-adv-x="462" 
d="M262 605h100q26 0 45 -7.5t31 -14.5q-5 14 -10 30.5t-12 53.5h-370q-7 -37 -12 -53.5t-10 -30.5q12 7 31 14.5t45 7.5h100v-578q0 -38 -2 -80.5t-7 -83.5t-15 -78t-25 -62q14 16 30.5 32.5t33.5 30t33.5 22.5t30.5 11q-5 16 -11 45t-6 63v678z" />
    <glyph glyph-name="U" unicode="U" horiz-adv-x="504" 
d="M471 0q-17 28 -17 62v543q0 34 17 62h-96q17 -28 17 -62v-543h-154q-35 0 -63 10t-47.5 27t-30.5 39t-11 46q0 41 18.5 81.5t40 81.5t40 83.5t18.5 88.5q0 33 -8 59t-19 46t-22 33l-17 20q-5 -23 -17 -38t-31 -27q6 -4 15 -14t17 -22.5t14 -27.5t6 -29q0 -38 -18.5 -76.5
l-40 -79.5t-40 -85.5t-18.5 -93.5q0 -33 13 -65.5t39 -59t66 -43t94 -16.5h235z" />
    <glyph glyph-name="V" unicode="V" horiz-adv-x="564" 
d="M111 667h-99q5 -7 12 -22t9 -40l39 -365q8 -76 24.5 -125.5t38 -79t48.5 -41t56 -11.5q41 0 70 21t49.5 55.5t33.5 78t22.5 88.5t16 87t13.5 74q28 125 73.5 201.5t114.5 114.5q-8 14 -11.5 32.5t-5.5 48.5q-37 -25 -70.5 -54.5t-62.5 -73t-53.5 -104.5t-43.5 -148
q-6 -25 -11 -61t-12 -76t-16.5 -79.5t-24 -71.5t-34.5 -51.5t-48 -19.5q-22 0 -39 9t-30.5 31.5t-23 62t-15.5 100.5l-37 356q-1 5 -1.5 10.5t-0.5 9.5q0 14 5.5 25.5t13.5 17.5z" />
    <glyph glyph-name="W" unicode="W" horiz-adv-x="832" 
d="M109 667h-97q7 -11 13 -29.5t8 -32.5l52 -365q11 -80 27.5 -130t38 -78t47 -38.5t54.5 -10.5q34 0 56.5 8t37.5 19t22.5 22t11.5 16q4 -5 11.5 -16t22.5 -22t37.5 -19t56.5 -8q41 0 70 21t49.5 55.5t33.5 78t22.5 88.5t16 87t13.5 74q28 126 73.5 202t113.5 113
q-9 19 -13 41.5t-4 40.5q-36 -24 -69 -54t-62 -73.5t-54 -104.5t-44 -148q-6 -25 -11 -61t-12 -76t-16.5 -79.5t-24 -71.5t-34.5 -51.5t-48 -19.5q-22 0 -40 8.5t-30.5 22.5t-19.5 32.5t-7 39.5v457q0 34 17 62h-96q17 -28 17 -62v-457q0 -21 -5.5 -39.5t-17.5 -32.5
t-30.5 -22.5t-43.5 -8.5q-21 0 -37.5 9.5t-29.5 32.5t-23 62t-18 99l-49 350q-1 5 -1.5 13t-0.5 13q0 11 4.5 22t11.5 21z" />
    <glyph glyph-name="X" unicode="X" horiz-adv-x="512" 
d="M146 667h-122q15 -14 30.5 -31.5t23.5 -30.5l144 -256l-235 -414q-21 -36 -48.5 -65.5t-57.5 -52t-61 -38t-58 -23.5q15 -14 28 -34.5t18 -43.5q18 2 47 22t61.5 50.5t64 69t53.5 77.5l221 396l107 -218q6 -11 8.5 -22t2.5 -19q0 -12 -3.5 -19.5l-6.5 -14.5h125
q-15 16 -31.5 38t-29.5 46l-140 265l99 175q10 18 23.5 35t25.5 30.5t21.5 23t12.5 13.5q-13 5 -23.5 15t-18.5 22.5t-14 27t-9 27.5l-9.5 -32.5t-12.5 -38.5t-16 -40t-19 -38l-92 -164l-106 200q-10 17 -11 35q0 8 2.5 15t5.5 12z" />
    <glyph glyph-name="Y" unicode="Y" horiz-adv-x="536" 
d="M302 62v207l134 251q24 45 47 76t44.5 51t40.5 31t36 16q-17 12 -22 26.5t-6 36.5q-18 -9 -40.5 -25t-46.5 -40t-48 -55.5t-45 -70.5l-125 -233l-145 271q-5 8 -6 14.5t-1 13.5q0 9 3.5 18t8.5 17h-119q4 -4 10.5 -12t13 -17l13 -18.5t9.5 -15.5l182 -335v-207
q0 -34 -17 -62h96q-17 28 -17 62z" />
    <glyph glyph-name="Z" unicode="Z" horiz-adv-x="506" 
d="M140 62l326 605h-367l-30 -115l24.5 23t20.5 17t20 10t24 3h192l-326 -605h427l31 118l-19.5 -20t-20.5 -18t-23.5 -13t-27.5 -5h-251z" />
    <glyph glyph-name="bracketleft" unicode="[" horiz-adv-x="227" 
d="M95 -34v734h32q33 0 49 -10.5t27 -22.5l-16 95h-154v-858h154l16 95q-11 -12 -27 -22.5t-49 -10.5h-32z" />
    <glyph glyph-name="backslash" unicode="\" horiz-adv-x="539" 
d="M12 667l466 -704l49 37l-465 703z" />
    <glyph glyph-name="bracketright" unicode="]" horiz-adv-x="227" 
d="M132 -34h-32q-33 0 -49 10.5t-27 22.5l16 -95h154v858h-154l-16 -95q11 12 27 22.5t49 10.5h32v-734z" />
    <glyph glyph-name="asciicircum" unicode="^" horiz-adv-x="298" 
d="M149 683l-125 -125q11 3 17 6.5t20 3.5q4 0 8 -4l6 -6l61 72q6 8 13 8t13 -8l61 -72l6 6t8 4q14 0 20 -3.5t17 -6.5z" />
    <glyph glyph-name="underscore" unicode="_" horiz-adv-x="480" 
d="M533 -67h-533v-50h533v50z" />
    <glyph glyph-name="grave" unicode="`" horiz-adv-x="160" 
d="M136 577q-11 18 -20 39t-16 41.5t-11.5 38.5t-6.5 30q-8 -23 -27 -37.5t-31 -21.5q6 -7 16 -17t22 -23.5t24.5 -30t23.5 -34.5z" />
    <glyph glyph-name="a" unicode="a" horiz-adv-x="370" 
d="M136 58q-21 0 -39 12.5t-18 33.5q0 23 15.5 39.5t39.5 29.5t52 24t54 25l30 16v-180h-134zM345 0q-17 28 -17 62v293q0 37 -26 63t-63 26h-156v-84q8 9 21 17.5t29 8.5h101q15 0 25.5 -10.5t10.5 -25.5v-31q0 -14 -18.5 -26t-46 -24.5l-60 -27t-60 -34t-46 -44.5
t-18.5 -59q0 -23 9.5 -42t25 -32.5t36 -21.5t43.5 -8h210z" />
    <glyph glyph-name="b" unicode="b" horiz-adv-x="397" 
d="M104 367l86.5 -52.5t68 -50.5t44 -55.5t15.5 -66.5q0 -27 -13 -43.5t-31.5 -25.5t-40 -12t-37.5 -3h-92v309zM104 583q0 23 3.5 43.5t9.5 40.5l-84 -62q5 -13 9 -30t4 -36v-539h142q41 0 75.5 9t59.5 27t39 44.5t14 61.5q0 54 -18.5 92.5t-53.5 71t-85.5 64l-114.5 70.5
v143z" />
    <glyph glyph-name="c" unicode="c" horiz-adv-x="352" 
d="M165 23q-25 35 -41.5 61.5t-26.5 49.5t-14 46t-4 52q0 34 8 65.5t22 54.5t32 37t39 14q19 0 33 -7.5t24 -19t16 -24.5t10 -23q14 18 32 33.5t36 23.5q-15 9 -25.5 16t-23.5 17q-32 24 -53 33t-49 9q-34 0 -63 -17.5t-50.5 -48.5t-33.5 -73t-12 -90q0 -44 12 -83.5t33 -77
t49 -75.5l60 -79q4 -5 16 -23l26 -39.5t26 -43.5t16 -35q11 21 22 39.5t26 38.5l-35.5 42.5l-45 52.5l-40 47.5z" />
    <glyph glyph-name="d" unicode="d" horiz-adv-x="401" 
d="M293 394v-336h-92q-17 0 -38 3t-39.5 12t-31.5 25.5t-13 43.5q0 37 15.5 70.5t43.5 64t67.5 59.5t87.5 58zM368 0q-17 28 -17 62v597l-71 -54q5 -9 9 -26t4 -40v-78l-95 -63.5t-87.5 -70t-64.5 -83t-25 -102.5q0 -35 14 -61.5t39 -44.5t59.5 -27t75.5 -9h159z" />
    <glyph glyph-name="e" unicode="e" horiz-adv-x="415" 
d="M335 177v-18q0 -19 -8.5 -39.5t-24.5 -38t-38.5 -29t-50.5 -11.5q-26 0 -46 9.5t-34 23t-22.5 27t-9.5 22.5l293 166q0 13 -7.5 41.5t-28 57.5t-56 51t-91.5 22q-47 0 -82.5 -22t-59.5 -57.5t-36 -79.5t-12 -87q0 -42 12.5 -83.5t36.5 -74.5t60 -53.5t83 -20.5
q52 0 86.5 21.5t55.5 49t29.5 55t8.5 39.5zM79 215q0 33 8 66.5t24 60.5t41 44t59 17q33 0 55 -11t35.5 -25.5t19.5 -28t7 -18.5l-246 -139q-1 5 -2 14t-1 20z" />
    <glyph glyph-name="f" unicode="f" horiz-adv-x="373" 
d="M246 386q27 0 40 -7.5t23 -22.5l-12 88h-137v17q0 34 11.5 67t32 58.5t49 41.5t63.5 16q18 0 36 -5l-44 78q-40 -8 -77.5 -27.5t-66 -51.5t-45.5 -76t-17 -101v-17h-81v-58h81v-444q0 -56 -8.5 -91t-21.5 -55.5t-27 -29.5t-24 -12q14 -15 21 -36t7 -43l31 24t37 44.5
t30.5 77t12.5 121.5v444h86z" />
    <glyph glyph-name="g" unicode="g" 
d="M191 42l18.5 44.5t17.5 51.5l-66 54q4 -5 4 -26q0 -18 -5.5 -45t-17.5 -59q-22 18 -42.5 57.5t-20.5 102.5q0 31 7 63t22 57.5t38 42t54 18.5l-21 -57l49 -18l24 60q26 -18 48.5 -60.5t22.5 -105.5q0 -31 -7.5 -63t-22.5 -58.5t-38 -43t-54 -16.5q-6 0 -10 1zM119 7
q-4 -12 -12.5 -30t-19 -37.5t-21.5 -37t-20 -28.5q15 2 39.5 6t62.5 4q22 0 41.5 -5.5t34.5 -16.5t23.5 -26.5t8.5 -34.5q0 -25 -15 -42.5t-36.5 -29t-46.5 -16.5t-45 -5l28 -56q37 4 68.5 17t55 32t37 43t13.5 52q0 21 -7 46t-25.5 46.5t-50.5 36t-81 15.5l18 47
q9 -2 15 -3t17 -1q44 0 77.5 21t56.5 55t34.5 76.5t11.5 86.5t-9.5 79.5t-24.5 63t-34 47t-39 31.5l14.5 30l12.5 24t13 21.5t15 24.5l-86 51q1 -42 -6 -72t-19 -62q-5 1 -9 1h-8q-44 0 -77.5 -21t-56.5 -54.5t-34.5 -76.5t-11.5 -87t9.5 -79.5t24.5 -62.5t32 -45.5
t32 -27.5z" />
    <glyph glyph-name="h" unicode="h" horiz-adv-x="420" 
d="M108 659l-75 -55q7 -6 12 -21.5t5 -43.5v-477q0 -34 -17 -62h92q-17 28 -17 62v219q0 25 10 47.5t28 39t42.5 26t53.5 9.5q15 0 32 -5.5t32 -19.5t25 -38t10 -61q0 -38 -12 -89t-44 -122l-36.5 -79t-31 -68t-22.5 -61.5t-12 -57.5q17 -11 35 -24t38 -35q0 33 3.5 64
t12.5 65.5t24.5 74.5t39.5 92q32 71 47.5 131t15.5 109q0 88 -42.5 135t-114.5 47q-35 0 -58 -8t-38 -18.5t-23.5 -21.5t-14.5 -17v263z" />
    <glyph glyph-name="i" unicode="i" horiz-adv-x="158" 
d="M125 606q0 19 -13.5 32.5t-32.5 13.5t-32.5 -13.5t-13.5 -32.5q0 -20 13.5 -33t32.5 -13t32.5 13t13.5 33zM108 382q0 34 17 62h-92q17 -28 17 -62v-320q0 -34 -17 -62h92q-17 28 -17 62v320z" />
    <glyph glyph-name="j" unicode="j" horiz-adv-x="158" 
d="M108 383q0 33 17 61h-92q17 -28 17 -61v-383q0 -69 -16.5 -116t-44.5 -76t-64 -43.5t-76 -18.5q11 -14 23.5 -33t18.5 -41q37 14 76 36t70 59t51 93.5t20 139.5v383zM125 606q0 19 -13.5 32.5t-32.5 13.5t-32.5 -13.5t-13.5 -32.5q0 -20 13.5 -33t32.5 -13t32.5 13
t13.5 33z" />
    <glyph glyph-name="k" unicode="k" horiz-adv-x="405" 
d="M108 220v439l-75 -55q7 -6 12 -21.5t5 -43.5v-477q0 -34 -17 -62h92q-8 14 -13 29.5t-4 32.5v66l74 87l111 -351q3 -9 4 -23t1 -25q28 -11 56 -25.5t57 -34.5h1q-8 10 -16.5 22.5t-16 25t-13 23.5t-8.5 20l-133 418l108 130q14 16 29 27l31 22h-144q5 -5 9.5 -13t4.5 -17
q0 -13 -7 -21z" />
    <glyph glyph-name="l" unicode="l" horiz-adv-x="158" 
d="M108 659l-75 -55q7 -6 12 -21.5t5 -43.5v-477q0 -34 -17 -62h92q-8 14 -13 29.5t-4 32.5v597z" />
    <glyph glyph-name="m" unicode="m" horiz-adv-x="546" 
d="M302 62v283q0 58 56 58q18 0 32 -15.5t25 -40t19 -56t14 -64t10.5 -63t8.5 -52.5l13.5 -82l12.5 -78.5t10.5 -69.5l7.5 -54q16 -5 42.5 -19.5t43.5 -30.5q-8 35 -29 119t-44 227l-12 73.5t-14 76t-19.5 71.5t-28 60t-39 41t-53.5 15q-21 0 -36 -7t-25.5 -16.5t-16 -18.5
t-7.5 -13q-2 4 -7.5 13t-15.5 18.5t-25 16.5t-37 7q-31 0 -53.5 -15t-39 -41t-28 -60t-19.5 -71.5t-14 -76l-12 -73.5q-23 -143 -44.5 -227t-28.5 -119q8 8 19.5 16t23.5 14.5t23.5 11.5t19.5 8l7.5 54t10.5 69.5l12.5 78.5l13.5 82q4 22 8.5 52.5t10.5 63t14 64t19 56
t25 40t32 15.5q56 0 56 -58v-283q0 -34 -17 -62h92q-17 28 -17 62z" />
    <glyph glyph-name="n" unicode="n" horiz-adv-x="412" 
d="M33 444q17 -28 17 -62v-320q0 -34 -17 -62h92q-17 28 -17 62v324h73q18 0 44 -6t50 -21t41 -41t17 -66q0 -46 -23 -102t-51.5 -111.5l-52.5 -106.5t-27 -88q20 -8 39 -22t43 -41h1q-4 6 -8.5 20.5t-4.5 26.5q0 27 8 60t21 61t32 65t37 78t31 82.5t13 77.5
q0 60 -23.5 97.5t-57.5 58.5t-71.5 28.5t-64.5 7.5h-141z" />
    <glyph glyph-name="o" unicode="o" 
d="M201 -17q44 0 77.5 21t56.5 55t34.5 76.5t11.5 86.5t-11.5 87t-34.5 76.5t-56.5 54.5t-77.5 21t-77.5 -21t-56.5 -54.5t-34.5 -76.5t-11.5 -87t11.5 -86.5t34.5 -76.5t56.5 -55t77.5 -21zM201 403q31 0 54 -16.5t38 -42.5t22.5 -58.5t7.5 -63.5t-7.5 -63t-22.5 -58.5
t-38 -43t-54 -16.5t-54 16.5t-38 43t-22.5 58.5t-7.5 63t7.5 63.5t22.5 58.5t38 42.5t54 16.5z" />
    <glyph glyph-name="p" unicode="p" horiz-adv-x="418" 
d="M108 51v335h92q23 0 47.5 -3t45 -12t33.5 -25.5t13 -42.5q0 -38 -17.5 -70.5t-48 -62.5t-73 -59t-92.5 -60zM108 -272v255l101.5 64t93 71t68 83t26.5 102q0 70 -55 105.5t-150 35.5h-159q17 -28 17 -62v-621q0 -17 -5.5 -42t-11.5 -45z" />
    <glyph glyph-name="q" unicode="q" horiz-adv-x="418" 
d="M310 51q-50 31 -92.5 60t-73 59t-48 62.5t-17.5 70.5q0 26 13 42.5t33.5 25.5t45 12t47.5 3h92v-335zM310 -272l75 -54q-6 20 -11.5 45t-5.5 42v621q0 34 17 62h-159q-95 0 -150 -35.5t-55 -105.5q0 -57 26.5 -102t68 -83t93 -71l101.5 -64v-255z" />
    <glyph glyph-name="r" unicode="r" horiz-adv-x="342" 
d="M33 444q17 -28 17 -62v-320q0 -34 -17 -62h92q-17 28 -17 62v324h147q17 0 32.5 -8t33.5 -34v100h-288z" />
    <glyph glyph-name="s" unicode="s" 
d="M272 320q11 20 28 44.5t33 38.5q-28 9 -46 19.5l-33.5 19t-32.5 14t-44 5.5q-33 0 -60 -11.5t-46.5 -31t-30 -46t-10.5 -56.5q0 -52 21.5 -83t54.5 -51t70.5 -33.5t70.5 -30.5t54.5 -41t21.5 -65q0 -35 -16.5 -62.5t-42.5 -49.5t-58.5 -38t-65 -28t-60.5 -20l-46 -13
q11 -14 23 -35t22 -50q9 12 23.5 23.5t29 20.5l25.5 15.5t14 8.5q14 8 48.5 25t70.5 44t63.5 66.5t27.5 92.5q0 55 -21.5 88t-54.5 54t-70.5 34t-70.5 28t-54.5 38t-21.5 62q0 37 26 62t63 25q32 0 57.5 -17.5t37.5 -65.5z" />
    <glyph glyph-name="t" unicode="t" horiz-adv-x="258" 
d="M184 -17l29 62q-20 0 -41.5 4.5t-39.5 16t-29.5 32t-11.5 52.5v236h80q26 0 39 -11.5t27 -31.5v101h-146v223l-58 -59v-450q0 -27 8 -58t26 -57t46.5 -43t70.5 -17z" />
    <glyph glyph-name="u" unicode="u" horiz-adv-x="400" 
d="M198 0h181q-17 28 -17 62v320q0 34 17 62h-92q17 -28 17 -62v-324h-113q-16 0 -35.5 3.5t-36.5 13.5t-28.5 28.5t-11.5 47.5t9 50t20.5 40t20.5 38.5t9 46.5q0 34 -11 61t-31 53q-19 -29 -50 -43q13 -14 23.5 -31.5t10.5 -39.5q0 -25 -9 -42.5t-20.5 -35.5t-20.5 -40
t-9 -57q0 -52 19.5 -82t47 -45.5t58 -19.5t52.5 -4z" />
    <glyph glyph-name="v" unicode="v" horiz-adv-x="388" 
d="M184 -17q49 0 74 30t40.5 82.5t27.5 124t35 154.5q6 23 14.5 40.5t17.5 29.5h-101q5 -8 9 -18.5t4 -23.5v-8q0 -3 -1 -8q-16 -80 -26 -144t-21.5 -108.5t-28 -68.5t-44.5 -24q-37 0 -53.5 28t-24.5 91t-17.5 145.5t-20.5 166.5q-26 -82 -73 -82q9 -8 18.5 -18.5
t12.5 -29.5q15 -83 20 -149.5t17 -113t38.5 -71.5t82.5 -25z" />
    <glyph glyph-name="w" unicode="w" horiz-adv-x="667" 
d="M301 382v-258q0 -15 -4 -30t-13 -26.5t-24.5 -19t-39.5 -7.5q-23 0 -41.5 17t-36.5 66t-37.5 136t-44.5 228q-8 -23 -24.5 -44t-40.5 -21l14 -20t13 -29q23 -83 39 -154.5t36 -124t48 -82.5t75 -30q30 0 49.5 6.5t31.5 15.5t18.5 18l10.5 15l10.5 -15t18.5 -18
t31.5 -15.5t49.5 -6.5q47 0 75.5 30t48 82.5t35.5 124t39 154.5q12 43 34 70h-103q3 -5 8 -16t5 -25v-8q0 -4 -1 -9q-19 -80 -31.5 -143.5t-27 -108.5t-33 -69t-49.5 -24q-24 0 -39.5 7.5t-24.5 19t-13 26.5t-4 30v258q0 34 17 62h-92q17 -28 17 -62z" />
    <glyph glyph-name="x" unicode="x" horiz-adv-x="395" 
d="M102 470q-8 -29 -19 -46t-37 -29q7 -5 22.5 -18t26.5 -29l73 -114l-105 -176q-9 -15 -28 -32.5t-31 -25.5h127q-4 4 -8 13.5t-4 20.5q0 14 6 24l71 129l73 -129q6 -10 6 -23q0 -12 -5 -21t-7 -14h128q-16 11 -34 28t-26 30l-107 176l93 152q11 17 26 33t29 25h-125
q3 -5 7.5 -14.5t4.5 -21.5t-5 -22l-58 -105l-75 127q-6 11 -11 28t-8 34z" />
    <glyph glyph-name="y" unicode="y" horiz-adv-x="375" 
d="M380 444h-107q4 -5 9 -15.5t5 -24.5q0 -8 -3 -18l-98 -307l-94 297q-7 20 -9.5 42.5t-4.5 42.5q-2 -9 -6.5 -21t-12.5 -23t-20.5 -19t-30.5 -8q8 -8 19.5 -26.5t19.5 -40.5l113 -327l-31 -93q-8 -23 -22 -41t-32.5 -31t-39 -20.5t-40.5 -9.5q8 -14 15 -30t11 -30
q22 2 46 14.5t46.5 32.5t41 47t28.5 57l161 494q5 17 15 32t21 26z" />
    <glyph glyph-name="z" unicode="z" horiz-adv-x="371" 
d="M132 58l218 386h-271l-19 -107h1q17 20 37.5 34.5t46.5 14.5h94l-218 -386h297l21 110q-20 -21 -39.5 -36.5t-47.5 -15.5h-120z" />
    <glyph glyph-name="braceleft" unicode="{" horiz-adv-x="274" 
d="M83 364q-34 0 -62 17v-96q28 17 62 17v-398h154l16 95q-11 -12 -27 -22.5t-49 -10.5h-32v734h32q33 0 49 -10.5t27 -22.5l-16 95h-154v-398z" />
    <glyph glyph-name="bar" unicode="|" horiz-adv-x="128" 
d="M33 -367h62v1067h-62v-1067z" />
    <glyph glyph-name="braceright" unicode="}" horiz-adv-x="274" 
d="M191 364v398h-154l-16 -95q11 12 27 22.5t49 10.5h32v-734h-32q-33 0 -49 10.5t-27 22.5l16 -95h154v398q34 0 62 -17v96q-28 -17 -62 -17z" />
    <glyph glyph-name="asciitilde" unicode="~" horiz-adv-x="281" 
d="M257 683q0 -3 -2.5 -11t-9.5 -17t-20 -15.5t-34 -6.5q-16 0 -27.5 8t-22.5 17t-22.5 17t-27.5 8q-21 0 -34.5 -6.5t-20.5 -15.5t-9.5 -17t-2.5 -11v-50q0 3 2.5 11t9.5 17t20.5 15.5t34.5 6.5q16 0 27.5 -8t22.5 -17t22.5 -17t27.5 -8q21 0 34 6.5t20 15.5t9.5 17t2.5 11
v50z" />
    <glyph glyph-name="quotesinglbase" unicode="&#x201a;" horiz-adv-x="132" 
d="M66 0q4 0 4 -4q0 -3 -4.5 -9t-11.5 -12.5l-15 -13.5t-15 -11l14 -21q70 47 70 121q0 19 -11.5 34.5t-30.5 15.5q-20 0 -31 -15.5t-11 -34.5t11.5 -34.5t30.5 -15.5z" />
    <glyph glyph-name="florin" unicode="&#x192;" horiz-adv-x="733" 
d="M33 667v-667h667v667h-667z" />
    <glyph glyph-name="quotedblbase" unicode="&#x201e;" horiz-adv-x="249" 
d="M66 0q4 0 4 -4q0 -3 -4.5 -9t-11.5 -12.5l-15 -13.5t-15 -11l14 -21q70 47 70 121q0 19 -11.5 34.5t-30.5 15.5q-20 0 -31 -15.5t-11 -34.5t11.5 -34.5t30.5 -15.5zM183 0q4 0 4 -4q0 -3 -4.5 -9t-11.5 -12.5l-15 -13.5t-15 -11l14 -21q70 47 70 121q0 19 -11.5 34.5
t-30.5 15.5q-20 0 -31 -15.5t-11 -34.5t11.5 -34.5t30.5 -15.5z" />
    <glyph glyph-name="ellipsis" unicode="&#x2026;" horiz-adv-x="366" 
d="M108 50q0 19 -11.5 34.5t-30.5 15.5q-20 0 -31 -15.5t-11 -34.5t11 -34.5t31 -15.5q19 0 30.5 15.5t11.5 34.5zM225 50q0 19 -11.5 34.5t-30.5 15.5q-20 0 -31 -15.5t-11 -34.5t11 -34.5t31 -15.5q19 0 30.5 15.5t11.5 34.5zM342 50q0 19 -11.5 34.5t-30.5 15.5
q-20 0 -31 -15.5t-11 -34.5t11 -34.5t31 -15.5q19 0 30.5 15.5t11.5 34.5z" />
    <glyph glyph-name="dagger" unicode="&#x2020;" horiz-adv-x="356" 
d="M203 358v92q-39 0 -68 40l11.5 -39t6.5 -60v-33h-92q0 -39 -40 -68l39 11.5t60 6.5h33v-234q39 0 68 -40l-11.5 39t-6.5 60v175h92q0 39 40 68l-39 -11.5t-60 -6.5h-33z" />
    <glyph glyph-name="daggerdbl" unicode="&#x2021;" horiz-adv-x="356" 
d="M203 166h92q0 39 40 68l-39 -11.5t-60 -6.5h-33v92h92q0 39 40 68l-39 -11.5t-60 -6.5h-33v92q-39 0 -68 40l11.5 -39t6.5 -60v-33h-92q0 -39 -40 -68l39 11.5t60 6.5h33v-92h-92q0 -39 -40 -68l39 11.5t60 6.5h33v-92q39 0 68 -40l-11.5 39t-6.5 60v33z" />
    <glyph glyph-name="circumflex" unicode="&#x2c6;" horiz-adv-x="298" 
d="M149 683l-125 -125q11 3 17 6.5t20 3.5q4 0 8 -4l6 -6l61 72q6 8 13 8t13 -8l61 -72l6 6t8 4q14 0 20 -3.5t17 -6.5z" />
    <glyph glyph-name="perthousand" unicode="&#x2030;" horiz-adv-x="839" 
d="M132 397q26 0 46.5 12.5t34 32.5t20.5 46t7 52t-7 51.5t-20.5 46t-34 33t-46.5 12.5t-46.5 -12.5t-34 -33t-20.5 -46t-7 -51.5t7 -52t20.5 -46t34 -32.5t46.5 -12.5zM132 625q15 0 25.5 -8t17.5 -20t10.5 -27t3.5 -30t-3.5 -30t-10.5 -27t-17.5 -20t-25.5 -8t-25.5 8
t-17.5 20t-10.5 27t-3.5 30t3.5 30t10.5 27t17.5 20t25.5 8zM431 -17q26 0 46.5 12.5t34 32.5t20.5 46t7 52t-7 51.5t-20.5 46t-34 33t-46.5 12.5t-46.5 -12.5t-34 -33t-20.5 -46t-7 -51.5t7 -52t20.5 -46t34 -32.5t46.5 -12.5zM431 211q15 0 25.5 -8t17.5 -20t10.5 -27
t3.5 -30t-3.5 -30t-10.5 -27t-17.5 -20t-25.5 -8t-25.5 8t-17.5 20t-10.5 27t-3.5 30t3.5 30t10.5 27t17.5 20t25.5 8zM539 667l-50 36l-465 -703l49 -37zM707 -17q26 0 46.5 12.5t34 32.5t20.5 46t7 52t-7 51.5t-20.5 46t-34 33t-46.5 12.5t-46.5 -12.5t-34 -33t-20.5 -46
t-7 -51.5t7 -52t20.5 -46t34 -32.5t46.5 -12.5zM707 211q15 0 25.5 -8t17.5 -20t10.5 -27t3.5 -30t-3.5 -30t-10.5 -27t-17.5 -20t-25.5 -8t-25.5 8t-17.5 20t-10.5 27t-3.5 30t3.5 30t10.5 27t17.5 20t25.5 8z" />
    <glyph glyph-name="Scaron" unicode="&#x160;" horiz-adv-x="448" 
d="M24 500q0 -56 25 -91t62.5 -59.5t81.5 -44t81.5 -43t62.5 -57.5t25 -88q0 -59 -30.5 -108t-78 -88.5t-105.5 -70t-111.5 -51.5t-97 -33t-62.5 -14q17 -15 27.5 -32t12.5 -45l89 38t108.5 50.5t112 64t99.5 79.5t71 96t27 114q0 64 -25 105.5t-62.5 69t-81.5 47
t-81.5 40.5t-62.5 48.5t-25 72.5q0 55 27 88t78 33q43 0 71.5 -21.5t50.5 -70.5q11 29 29 47.5t36 32.5q-24 9 -44 21.5l-40.5 24.5t-45 20t-57.5 8q-40 0 -71 -14.5t-52.5 -39t-32.5 -58t-11 -71.5zM191 817q-21 0 -34.5 6.5t-20.5 15.5t-9.5 17t-2.5 11v-50q0 -3 2.5 -11
t9.5 -17t20.5 -15.5t34.5 -6.5t34.5 6.5t20.5 15.5t9.5 17t2.5 11v50q0 -3 -2.5 -11t-9.5 -17t-20.5 -15.5t-34.5 -6.5z" />
    <glyph glyph-name="guilsinglleft" unicode="&#x2039;" horiz-adv-x="201" 
d="M21 334l156 -156q-4 14 -7.5 21.5t-4.5 24.5q0 5 5 10.5t7 7.5l-90 76q-10 8 -10 16t10 16l90 76q-2 2 -7 7.5t-5 10.5q1 17 4.5 24.5t7.5 21.5z" />
    <glyph glyph-name="OE" unicode="&#x152;" horiz-adv-x="872" 
d="M432 587q-28 43 -70.5 69.5t-102.5 26.5q-67 0 -112 -32t-72.5 -83t-39 -113t-11.5 -122t11.5 -122t39 -113t72.5 -83t112 -32q61 0 103 26.5t70 69.5v-17q0 -34 -17 -62h406q3 24 11 47.5t16 38.5q-14 -7 -33 -15.5t-48 -8.5h-273v185l151 73q18 8 32 8q10 0 18.5 -5
t16.5 -13v126q-10 -14 -21 -23.5t-28 -17.5l-169 -82v292h240q24 0 43 -7.5t36 -15.5q-7 14 -14.5 38t-10.5 47h-373q17 -28 17 -62v-18zM432 333q0 -50 -7.5 -101t-27 -92.5t-53 -68t-85.5 -26.5t-85.5 26.5t-53 68t-27 92.5t-7.5 101t7.5 101.5t27 93t53 68t85.5 26.5
t85.5 -26.5t53 -68t27 -93t7.5 -101.5z" />
    <glyph glyph-name="quoteleft" unicode="&#x2018;" horiz-adv-x="132" 
d="M66 699q-4 0 -4 4q0 3 4.5 9t11.5 12.5l15 13.5t15 11l-14 21q-70 -47 -70 -121q0 -19 11.5 -34.5t30.5 -15.5q20 0 31 15.5t11 34.5t-11.5 34.5t-30.5 15.5z" />
    <glyph glyph-name="quoteright" unicode="&#x2019;" horiz-adv-x="132" 
d="M66 667q4 0 4 -4q0 -3 -4.5 -9t-11.5 -12.5l-15 -13.5t-15 -11l14 -21q70 47 70 121q0 19 -11.5 34.5t-30.5 15.5q-20 0 -31 -15.5t-11 -34.5t11.5 -34.5t30.5 -15.5z" />
    <glyph glyph-name="quotedblleft" unicode="&#x201c;" horiz-adv-x="249" 
d="M183 695q-4 0 -4 4q0 3 4.5 9t11.5 12.5l15 13.5t15 11l-14 21q-70 -47 -70 -121q0 -19 11.5 -34.5t30.5 -15.5q20 0 31 15.5t11 34.5t-11.5 34.5t-30.5 15.5zM66 695q-4 0 -4 4q0 3 4.5 9t11.5 12.5l15 13.5t15 11l-14 21q-70 -47 -70 -121q0 -19 11.5 -34.5t30.5 -15.5
q20 0 31 15.5t11 34.5t-11.5 34.5t-30.5 15.5z" />
    <glyph glyph-name="quotedblright" unicode="&#x201d;" horiz-adv-x="249" 
d="M66 667q4 0 4 -4q0 -3 -4.5 -9t-11.5 -12.5l-15 -13.5t-15 -11l14 -21q70 47 70 121q0 19 -11.5 34.5t-30.5 15.5q-20 0 -31 -15.5t-11 -34.5t11.5 -34.5t30.5 -15.5zM183 667q4 0 4 -4q0 -3 -4.5 -9t-11.5 -12.5l-15 -13.5t-15 -11l14 -21q70 47 70 121q0 19 -11.5 34.5
t-30.5 15.5q-20 0 -31 -15.5t-11 -34.5t11.5 -34.5t30.5 -15.5z" />
    <glyph glyph-name="bullet" unicode="&#x2022;" horiz-adv-x="242" 
d="M221 333q0 42 -29 71t-71 29t-71 -29t-29 -71t29 -71t71 -29t71 29t29 71z" />
    <glyph glyph-name="endash" unicode="&#x2013;" horiz-adv-x="628" 
d="M564 308q0 39 40 68l-39 -11.5t-60 -6.5h-441q0 -39 -40 -68l39 11.5t60 6.5h441z" />
    <glyph glyph-name="emdash" unicode="&#x2014;" horiz-adv-x="1128" 
d="M1064 308q0 39 40 68l-39 -11.5t-60 -6.5h-941q0 -39 -40 -68l39 11.5t60 6.5h941z" />
    <glyph glyph-name="tilde" unicode="&#x2dc;" horiz-adv-x="281" 
d="M257 683q0 -3 -2.5 -11t-9.5 -17t-20 -15.5t-34 -6.5q-16 0 -27.5 8t-22.5 17t-22.5 17t-27.5 8q-21 0 -34.5 -6.5t-20.5 -15.5t-9.5 -17t-2.5 -11v-50q0 3 2.5 11t9.5 17t20.5 15.5t34.5 6.5q16 0 27.5 -8t22.5 -17t22.5 -17t27.5 -8q21 0 34 6.5t20 15.5t9.5 17t2.5 11
v50z" />
    <glyph glyph-name="trademark" unicode="&#x2122;" horiz-adv-x="780" 
d="M183 626h67q17 0 29.5 -5t20.5 -10q-3 9 -6 20t-8 36h-247q-5 -25 -8 -36t-7 -20q8 5 21 10t30 5h67v-386q0 -25 -1.5 -53t-5 -55.5t-10 -52t-16.5 -41.5q9 11 20.5 22t22.5 20t22 15t20 7q-3 11 -7 30t-4 42v452zM759 350q-8 52 -16 110t-23 106.5t-39 80t-63 31.5
q-24 0 -39.5 -6t-24.5 -14t-13 -15t-5 -10q-1 3 -5 10t-13 15t-24.5 14t-39.5 6q-26 0 -45 -14.5t-33 -39.5t-23.5 -58t-17 -69.5t-12.5 -74l-10 -72.5q-12 -82 -24 -143.5t-22 -103.5t-17 -65.5t-8 -29.5q12 13 21.5 21.5t18.5 14t18.5 9t22.5 5.5l2 21.5t2 26t3 38.5t6 59
t10.5 87.5t16.5 123.5q3 23 9 60.5t16.5 73.5t26.5 62t39 26q21 0 33 -8.5t18 -20t8 -24t2 -21.5v-298q0 -23 -11 -42h64q-11 19 -11 42v298q0 9 2 21.5t8 24t18 20t33 8.5q23 0 38.5 -26t26 -62t17 -73.5t9.5 -60.5q10 -72 16.5 -123.5t10.5 -87.5t6 -59t3 -38.5t1.5 -26
t2.5 -21.5q13 -2 22.5 -5.5t18.5 -9t18.5 -14t21.5 -21.5q-2 6 -8.5 29.5t-16.5 65.5t-22 103.5t-24 143.5z" />
    <glyph glyph-name="scaron" unicode="&#x161;" 
d="M272 320q11 20 28 44.5t33 38.5q-28 9 -46 19.5l-33.5 19t-32.5 14t-44 5.5q-33 0 -60 -11.5t-46.5 -31t-30 -46t-10.5 -56.5q0 -52 21.5 -83t54.5 -51t70.5 -33.5t70.5 -30.5t54.5 -41t21.5 -65q0 -35 -16.5 -62.5t-42.5 -49.5t-58.5 -38t-65 -28t-60.5 -20l-46 -13
q11 -14 23 -35t22 -50q9 12 23.5 23.5t29 20.5l25.5 15.5t14 8.5q14 8 48.5 25t70.5 44t63.5 66.5t27.5 92.5q0 55 -21.5 88t-54.5 54t-70.5 34t-70.5 28t-54.5 38t-21.5 62q0 37 26 62t63 25q32 0 57.5 -17.5t37.5 -65.5zM177 600q-21 0 -34.5 6.5t-20.5 15.5t-9.5 17
t-2.5 11v-50q0 -3 2.5 -11t9.5 -17t20.5 -15.5t34.5 -6.5t34.5 6.5t20.5 15.5t9.5 17t2.5 11v50q0 -3 -2.5 -11t-9.5 -17t-20.5 -15.5t-34.5 -6.5z" />
    <glyph glyph-name="guilsinglright" unicode="&#x203a;" horiz-adv-x="201" 
d="M180 334l-156 156q4 -14 7.5 -21.5t4.5 -24.5q0 -5 -5 -10.5t-7 -7.5l90 -76q10 -8 10 -16t-10 -16l-90 -76q2 -2 7 -7.5t5 -10.5q-1 -17 -4.5 -24.5t-7.5 -21.5z" />
    <glyph glyph-name="oe" unicode="&#x153;" horiz-adv-x="717" 
d="M352 90q23 -46 64 -76.5t99 -30.5q52 0 86.5 21.5t55.5 49t29.5 55t8.5 39.5l-58 29v-18q0 -19 -8.5 -39.5t-24.5 -38t-38.5 -29t-50.5 -11.5q-26 0 -46 9.5t-34 23t-22.5 27t-9.5 22.5l293 166q0 13 -7.5 41.5t-28 57.5t-56 51t-91.5 22q-57 0 -96.5 -31t-62.5 -78
q-22 48 -60.5 78.5t-92.5 30.5q-44 0 -77.5 -21t-56.5 -54.5t-34.5 -76.5t-11.5 -87t11.5 -86.5t34.5 -76.5t56.5 -55t77.5 -21q54 0 91.5 30t59.5 77zM201 403q31 0 54 -16.5t38 -42.5t22.5 -58.5t7.5 -63.5t-7.5 -63t-22.5 -58.5t-38 -43t-54 -16.5t-54 16.5t-38 43
t-22.5 58.5t-7.5 63t7.5 63.5t22.5 58.5t38 42.5t54 16.5zM381 215q0 33 8 66.5t24 60.5t41 44t59 17q33 0 55 -11t35.5 -25.5t19.5 -28t7 -18.5l-246 -139q-1 5 -2 14t-1 20z" />
    <glyph glyph-name="Ydieresis" unicode="&#x178;" horiz-adv-x="536" 
d="M302 62v207l134 251q24 45 47 76t44.5 51t40.5 31t36 16q-17 12 -22 26.5t-6 36.5q-18 -9 -40.5 -25t-46.5 -40t-48 -55.5t-45 -70.5l-125 -233l-145 271q-5 8 -6 14.5t-1 13.5q0 9 3.5 18t8.5 17h-119q4 -4 10.5 -12t13 -17l13 -18.5t9.5 -15.5l182 -335v-207
q0 -34 -17 -62h96q-17 28 -17 62zM254 817q0 19 -11.5 34.5t-30.5 15.5q-20 0 -31 -15.5t-11 -34.5t11 -34.5t31 -15.5q19 0 30.5 15.5t11.5 34.5zM372 817q0 19 -11.5 34.5t-30.5 15.5q-20 0 -31 -15.5t-11 -34.5t11 -34.5t31 -15.5q19 0 30.5 15.5t11.5 34.5z" />
    <glyph glyph-name="exclamdown" unicode="&#xa1;" horiz-adv-x="166" 
d="M52 367q0 -151 -8 -243t-11 -124h100q-3 32 -11 124t-8 243v167h-62v-167zM125 617q0 19 -11.5 34.5t-30.5 15.5q-20 0 -31 -15.5t-11 -34.5t11 -34.5t31 -15.5q19 0 30.5 15.5t11.5 34.5z" />
    <glyph glyph-name="cent" unicode="&#xa2;" horiz-adv-x="320" 
d="M170 260q-25 0 -44 12t-32.5 31t-20.5 43.5t-7 49.5q0 28 8 54t22 45.5t33 31t41 11.5q32 0 52.5 -17t20.5 -45t-12.5 -38t-26.5 -10t-23 8t-12 21l-37 -31q25 -43 72 -43q13 0 28 5t27.5 16t20.5 28.5t8 43.5t-9.5 45t-24 31.5t-31 19.5t-30.5 10v51h-47v-51
q-53 -13 -89 -59.5t-36 -126.5q0 -32 8.5 -61.5t24 -53.5t39 -40.5t53.5 -22.5v-50h47v49q23 3 40.5 13.5t30.5 24.5t21.5 30.5t13.5 30.5l-47 21q-15 -77 -82 -77z" />
    <glyph glyph-name="sterling" unicode="&#xa3;" horiz-adv-x="522" 
d="M113 295q14 -31 25 -60t11 -60q0 -35 -7.5 -62t-19.5 -47.5t-26 -36.5t-27 -29h392l40 128q-27 -30 -61.5 -48t-70.5 -18h-186l16.5 45t11.5 74q0 29 -10 57t-23 57h65v60h-90q-10 26 -16 52.5t-6 56.5q0 25 7.5 52.5t24 51t42.5 38.5t63 15q28 0 48 -7.5t33.5 -18
t21.5 -21.5t12 -18q14 17 28.5 29t28.5 22q-13 13 -31.5 26.5t-41 24.5t-47.5 18t-52 7q-43 0 -79.5 -18t-63 -48t-41.5 -70t-15 -83q0 -31 5.5 -58t13.5 -51h-64v-60h89z" />
    <glyph glyph-name="currency" unicode="&#xa4;" horiz-adv-x="465" 
d="M360 382q-27 -67 -66 -92l-162 -104q-15 19 -30.5 69t-15.5 132q0 35 9 76t28.5 76t51 58.5t77.5 23.5q25 0 44.5 -9t32 -23t19 -32.5t6.5 -36.5q21 29 45.5 43.5t53.5 20.5q-14 8 -27 13t-28 19q-38 34 -70 50.5t-76 16.5q-48 0 -83.5 -15.5t-61 -40.5t-41.5 -57
t-25.5 -64.5t-13 -64t-3.5 -54.5q0 -37 5.5 -77.5t19 -82.5t37 -84.5t58.5 -82.5q43 -49 84 -88l78 -75t69 -73t57 -80q10 -17 17.5 -37t17.5 -43q22 39 44.5 57t52.5 31q-15 4 -29 8.5t-27.5 13t-27.5 21t-29 32.5q-38 49 -76.5 87.5l-75 73.5l-70.5 69.5t-62 75.5l136 92
q9 7 21 7q9 0 18.5 -4t17.5 -15v169z" />
    <glyph glyph-name="yen" unicode="&#xa5;" horiz-adv-x="536" 
d="M365 386l71 134q24 45 47 76t44.5 51t40.5 31t36 16q-17 12 -22 26.5t-6 36.5q-18 -9 -40.5 -25t-46.5 -40t-48 -55.5t-45 -70.5l-125 -233l-145 271q-5 8 -6 14.5t-1 13.5q0 9 3.5 18t8.5 17h-119q4 -4 10.5 -12t13 -17l13 -18.5t9.5 -15.5l118 -218h-86v-58h118l32 -59
h-100v-58h100v-149q0 -34 -17 -62h96q-17 28 -17 62v149h100v58h-100l32 59h118v58h-87z" />
    <glyph glyph-name="brokenbar" unicode="&#xa6;" horiz-adv-x="164" 
d="M51 271v-229q0 -38 -6.5 -60l-11.5 -39q14 20 33 30t47 10v350zM51 333l62 62v229q0 38 6.5 60l11.5 39q-23 -20 -42 -30t-38 -10v-350z" />
    <glyph glyph-name="section" unicode="&#xa7;" horiz-adv-x="566" 
d="M328 605h100q17 0 26.5 -11.5t15.5 -22.5l72 96h-518l70 -97q6 11 16.5 23t25.5 12h116l-86 -101t-70 -92t-47 -92.5t-17 -102.5q0 -48 17 -90.5t47.5 -74.5t72.5 -50.5t93 -18.5q44 0 82.5 14t67 40.5t45 63.5t16.5 82q0 37 -11 69.5t-32 57.5t-51.5 39.5t-69.5 14.5
q-27 0 -48 -8t-37.5 -20t-29 -25l-22.5 -23q8 -11 21 -34t27 -60q3 18 9.5 37t17.5 34.5t26 26t36 10.5q51 0 76.5 -31t25.5 -88q0 -60 -38.5 -99t-110.5 -39q-35 0 -66 12.5t-53.5 35.5t-35.5 54.5t-13 69.5q0 50 19.5 96t52 92.5t75 95z" />
    <glyph glyph-name="dieresis" unicode="&#xa8;" 
d="M215 41q-33 0 -58 15.5t-42.5 40.5t-26.5 56.5t-9 63.5q0 37 10.5 70.5t29 59t43 41t53.5 15.5q41 0 68 -23t27 -59t-17 -49t-34 -13t-29 10.5t-17 27.5l-48 -40q30 -56 94 -56q17 0 36 6.5t35.5 20.5t27 37t10.5 56t-12.5 59t-34 44t-49 27.5t-57.5 9.5
q-42 0 -77.5 -17.5t-61.5 -50t-40.5 -77.5t-14.5 -99q0 -44 14 -86t39.5 -75t61 -53t79.5 -20q62 0 104.5 35.5t61.5 94.5l-60 28q-10 -48 -37 -74t-69 -26z" />
    <glyph glyph-name="copyright" unicode="&#xa9;" horiz-adv-x="714" 
d="M357 666q-69 0 -129.5 -26t-106 -71.5t-71.5 -106t-26 -129.5t26 -129.5t71.5 -106t106 -71.5t129.5 -26t129.5 26t106 71.5t71.5 106t26 129.5t-26 129.5t-71.5 106t-106 71.5t-129.5 26zM357 626q61 0 114 -23t93 -63t63 -93t23 -114t-23 -114.5t-63 -93t-93 -62.5
t-114 -23t-114.5 23t-93 62.5t-62.5 93t-23 114.5t23 114t62.5 93t93 63t114.5 23zM357 192q-26 0 -46 12.5t-34 32.5t-21.5 45t-7.5 51q0 30 8.5 57t23 47.5t34.5 32.5t43 12q32 0 54 -18.5t22 -47.5t-13.5 -39t-27.5 -10t-23.5 8.5t-12.5 21.5l-39 -32q25 -45 75 -45
q13 0 28.5 5t29 16.5t22 30t8.5 44.5q0 27 -10 47.5t-27.5 35t-39.5 22t-46 7.5q-33 0 -61.5 -14t-49.5 -40t-32.5 -62t-11.5 -79q0 -35 11 -69t31.5 -60t49 -42t63.5 -16q50 0 84 28.5t49 75.5l-48 22q-8 -38 -29.5 -59t-55.5 -21z" />
    <glyph glyph-name="ordfeminine" unicode="&#xaa;" horiz-adv-x="278" 
d="M38 133h203v42h-203v-42zM103 258q-15 0 -28 9t-13 24q0 16 11 28t28.5 21t37.5 17.5t38 17.5l22 12v-129h-96zM253 217q-12 19 -12 44v209q0 26 -19 45t-45 19h-112v-60q5 6 15 12t21 6h72q11 0 18.5 -7t7.5 -18v-22q0 -10 -13 -18.5t-33 -17.5l-43 -20t-43 -24.5
t-33 -31.5t-13 -42q0 -16 6.5 -29.5t18 -23.5t26 -15.5t30.5 -5.5h151z" />
    <glyph glyph-name="guillemotleft" unicode="&#xab;" horiz-adv-x="344" 
d="M21 334l156 -156q-4 14 -7.5 21.5t-4.5 24.5q0 5 5 10.5t7 7.5l-90 76q-10 8 -10 16t10 16l90 76q-2 2 -7 7.5t-5 10.5q1 17 4.5 24.5t7.5 21.5zM164 334l156 -156q-4 14 -7.5 21.5t-4.5 24.5q0 5 5 10.5t7 7.5l-90 76q-10 8 -10 16t10 16l90 76q-2 2 -7 7.5t-5 10.5
q1 17 4.5 24.5t7.5 21.5z" />
    <glyph glyph-name="logicalnot" unicode="&#xac;" horiz-adv-x="459" 
d="M111 344q0 23 12.5 46t32.5 41t45 29t51 11q58 0 91 -38.5t33 -113.5q0 -50 -24.5 -115.5t-59.5 -140.5l-75 -156t-71 -162q22 -16 44 -38.5t36 -45.5q9 63 28 123t42.5 117.5t48.5 113t45.5 108.5t34 104.5t13.5 101.5q0 55 -15 94t-40.5 63.5t-59.5 35.5t-71 11
q-24 0 -45.5 -6.5t-39.5 -15.5t-32 -19.5t-23 -18.5v210q-14 -20 -36.5 -30.5t-42.5 -10.5q7 -6 12 -21.5t5 -43.5v-515q0 -34 -17 -62h96q-17 28 -17 62z" />
    <glyph glyph-name="registered" unicode="&#xae;" horiz-adv-x="492" 
d="M329 238q3 -11 4 -19t2 -11q35 -19 55 -36q-2 4 -6 11t-8 15t-7.5 16t-6.5 14l-9 22q52 29 83.5 80t31.5 114q0 46 -17.5 86.5t-47.5 70.5t-70.5 47.5t-86.5 17.5t-86.5 -17.5t-70.5 -47.5t-47.5 -70.5t-17.5 -86.5t17.5 -86.5t47.5 -70.5t70.5 -47.5t86.5 -17.5
q43 0 83 16zM343 275l-60 151q8 0 19 3.5t21.5 11t17.5 19.5t7 29q0 25 -12.5 42t-30.5 27.5t-38 14.5t-35 4h-51q7 -10 7 -25v-217q0 -15 -7 -25h39q-7 10 -7 25v217h19q13 0 29 -3.5t30 -11.5t23 -20t9 -28q0 -11 -5 -18.5t-12.5 -12t-17 -6.5t-17.5 -2q-27 0 -45 23v-51
q5 1 11 2t15 1q6 0 7.5 -2t3.5 -6l58 -153q-36 -15 -75 -15q-41 0 -76.5 15.5t-61.5 41.5t-41.5 61.5t-15.5 76.5q0 40 15.5 76t41.5 62t61.5 41.5t76.5 15.5q40 0 76 -15.5t62 -41.5t41.5 -62t15.5 -76q0 -55 -27 -99.5t-71 -69.5z" />
    <glyph glyph-name="macron" unicode="&#xaf;" horiz-adv-x="519" 
d="M226 132q20 -15 30.5 -27t19.5 -25q13 7 25 16.5t21.5 22.5t15 30.5t5.5 42.5q0 30 -13.5 53.5t-35.5 40t-50 25.5t-58 9q-32 0 -61.5 -11.5t-52 -32t-35.5 -48.5t-13 -60q0 -51 19.5 -86.5t51.5 -57t74.5 -31.5t87.5 -10q52 0 96 16.5t75.5 45t49 66.5t17.5 82
q0 60 -28.5 98.5t-71.5 64t-93.5 42.5t-93.5 34t-71.5 39.5t-28.5 57.5q0 45 36 68.5t95 23.5q22 0 44.5 -7.5t43.5 -19.5t40.5 -27.5t35.5 -32.5q12 29 28 45t30 27q-22 5 -45 18t-49.5 26t-58 23t-69.5 10q-36 0 -70.5 -10.5t-62 -30t-44 -48t-16.5 -65.5
q0 -49 28.5 -80.5t71.5 -53.5t93.5 -39t93.5 -38t71.5 -50t28.5 -75q0 -34 -15 -61t-39.5 -46.5t-56 -30t-65.5 -10.5q-36 0 -67.5 6.5t-54.5 20.5t-36 37.5t-13 58.5q0 19 8 35.5t21.5 28.5t32 19t38.5 7q17 0 34 -4t30.5 -12.5t22 -21t8.5 -28.5q0 -26 -14.5 -40.5
t-40.5 -19.5z" />
    <glyph glyph-name="degree" unicode="&#xb0;" horiz-adv-x="248" 
d="M124 767q-42 0 -71 -29t-29 -71t29 -71t71 -29t71 29t29 71t-29 71t-71 29zM174 667q0 -21 -14.5 -35.5t-35.5 -14.5t-35.5 14.5t-14.5 35.5q0 20 14.5 35t35.5 15t35.5 -15t14.5 -35z" />
    <glyph glyph-name="plusminus" unicode="&#xb1;" horiz-adv-x="378" 
d="M241 -100l-69.5 81.5t-48.5 70.5q28 13 68 37t77 57t63 75.5t26 94.5q0 71 -40 108t-105 37q-39 0 -73.5 -19t-61 -52.5t-41.5 -79t-15 -99.5q0 -59 17 -109t43 -94t57 -82l58 -71q32 -39 57.5 -82t30.5 -85l71 57q-26 42 -55.5 81zM98 107q-8 20 -13.5 47.5t-5.5 56.5
q0 34 9 68t26.5 61.5t42 45t55.5 17.5q45 0 66 -25.5t21 -61.5q0 -34 -17 -65t-45.5 -57.5t-64.5 -48.5t-74 -38z" />
    <glyph glyph-name="twosuperior" unicode="&#xb2;" horiz-adv-x="240" 
d="M204 406l13 69h-1q-8 -11 -20.5 -22.5t-29.5 -11.5h-70l46.5 39t39.5 38.5t27 39t10 39.5q0 23 -7.5 39t-19.5 26.5t-27.5 15.5t-31.5 5q-28 0 -53.5 -15t-41.5 -38l31 -29q6 19 20.5 33t43.5 14q21 0 36.5 -12.5t15.5 -38.5q0 -18 -12.5 -37t-30 -36.5t-36 -32.5
l-30.5 -25l-14.5 -11.5t-18.5 -15.5t-15.5 -16t-6.5 -12q0 -5 8 -5h175z" />
    <glyph glyph-name="threesuperior" unicode="&#xb3;" horiz-adv-x="256" 
d="M148 495q13 8 26 18t23.5 22t17 26.5t6.5 32.5q0 24 -8.5 41t-21.5 27.5t-28.5 15.5t-29.5 5q-33 0 -56 -12.5t-35 -27.5l32 -31q7 16 21 26t38 10q20 0 36.5 -13t16.5 -41q0 -29 -27.5 -51t-75.5 -48v-41q8 5 18 10t18 5q17 0 32 -9t26 -23t17 -33t6 -38q0 -20 -5.5 -40
t-16 -36t-26.5 -26t-37 -10q-29 0 -47 14t-29 28l-18 -34q5 -5 13.5 -12.5t20 -14t26.5 -11.5t34 -5q28 0 50.5 12.5t38 33t23.5 47t8 54.5q0 30 -8 53.5t-20.5 39.5t-28 25t-30.5 11z" />
    <glyph glyph-name="acute" unicode="&#xb4;" horiz-adv-x="526" 
d="M86 407q0 46 12.5 85.5t35.5 68t57 44.5t77 16q40 0 72 -12t54.5 -33t34 -50t11.5 -63q0 -32 -9.5 -55t-25.5 -37.5t-37.5 -21.5t-45.5 -7q-43 0 -67 21t-24 56q0 15 6 25.5t14.5 17.5t17.5 11t15 6q-5 4 -10.5 12.5t-9.5 18t-6.5 19.5t-2.5 16q-6 -2 -20 -9.5t-28.5 -22
t-26 -38t-11.5 -56.5q0 -29 12.5 -54.5t34 -44.5t49 -29.5t57.5 -10.5q36 0 68.5 14.5t57 39.5t39.5 58t15 71q0 52 -19 93t-51 69.5t-74.5 43t-89.5 14.5q-50 0 -94 -19.5t-77.5 -55.5t-53 -87t-19.5 -114q0 -53 20.5 -99.5t53 -88.5t73.5 -80l83 -73.5l80.5 -68.5
t65.5 -66q6 29 20 47t37 30q-6 3 -35.5 20.5t-70.5 45.5t-87.5 65t-86 80.5t-65.5 91t-26 96.5z" />
    <glyph glyph-name="mu" unicode="&#xb5;" horiz-adv-x="668" 
d="M288 0h92q-17 28 -17 62v258q0 15 3.5 30t12 27t22 19.5t33.5 7.5q34 0 55.5 -25t36.5 -70.5t28 -109t31 -140.5q2 -5 2 -10v-8q0 -12 -4.5 -22.5t-9.5 -18.5h100q-7 12 -15.5 28.5t-15.5 42.5q-23 83 -39 154t-36 123.5t-49.5 82.5t-78.5 30q-29 0 -48 -7t-31 -16
t-18 -18.5t-8 -14.5q-2 5 -8 14.5t-18 18.5t-31.5 16t-47.5 7q-49 0 -78.5 -30t-49.5 -82.5t-36.5 -123.5t-38.5 -154q-7 -26 -15.5 -42.5t-15.5 -28.5h100q-5 8 -9.5 18.5t-4.5 22.5v8q0 5 2 10q18 77 31 140.5t28 109t36 70.5t56 25q20 0 33.5 -7.5t22 -19.5t12 -27
t3.5 -30v-258q0 -34 -17 -62z" />
    <glyph glyph-name="paragraph" unicode="&#xb6;" horiz-adv-x="587" 
d="M413 605h62v-808q26 -15 45.5 -33.5t33.5 -34.5q-10 55 -13.5 122t-3.5 131v623q0 34 17 62h-283q-52 0 -97 -13.5t-78.5 -38.5t-52.5 -61.5t-19 -82.5q0 -55 33 -107t82.5 -98.5t106.5 -86.5t105 -70v-312q26 -15 45.5 -33.5t33.5 -34.5q-10 55 -13.5 122t-3.5 131v623z
" />
    <glyph glyph-name="periodcentered" unicode="&#xb7;" horiz-adv-x="602" 
d="M303 276v136q-17 -34 -48 -50l-152 -82v325h240q24 0 43 -7.5t36 -15.5q-7 14 -14.5 38t-10.5 47h-373q17 -28 17 -62v-543q0 -20 -5 -35.5t-12 -26.5q7 0 17 -0.5t21 -2l21.5 -3t18.5 -4.5q49 -16 92.5 -48l92.5 -71t108.5 -81t142.5 -78q10 46 20.5 73l19.5 51
q-6 -8 -17.5 -19t-28.5 -11q-32 0 -62 13t-59 33t-57 44l-56 46q-42 33 -70.5 52t-49.5 30.5t-38 18l-37 13.5v155l133 72q16 9 32 9q17 0 35 -16z" />
    <glyph glyph-name="periodcentered" unicode="&#x2219;" horiz-adv-x="602" 
d="M303 276v136q-17 -34 -48 -50l-152 -82v325h240q24 0 43 -7.5t36 -15.5q-7 14 -14.5 38t-10.5 47h-373q17 -28 17 -62v-543q0 -20 -5 -35.5t-12 -26.5q7 0 17 -0.5t21 -2l21.5 -3t18.5 -4.5q49 -16 92.5 -48l92.5 -71t108.5 -81t142.5 -78q10 46 20.5 73l19.5 51
q-6 -8 -17.5 -19t-28.5 -11q-32 0 -62 13t-59 33t-57 44l-56 46q-42 33 -70.5 52t-49.5 30.5t-38 18l-37 13.5v155l133 72q16 9 32 9q17 0 35 -16z" />
    <glyph glyph-name="onesuperior" unicode="&#xb9;" horiz-adv-x="97" 
d="M66 683l-45 -33q8 -5 9 -15.5t1 -21.5v-165q0 -21 -10 -37h55q-10 18 -10 37v235z" />
    <glyph glyph-name="ordmasculine" unicode="&#xba;" horiz-adv-x="299" 
d="M38 133h223v42h-223v-42zM150 216q31 0 55 15t40 39.5t24.5 55t8.5 61.5t-8.5 62t-24.5 55t-40 39t-55 15q-32 0 -56 -15t-40 -39t-24.5 -55t-8.5 -62t8.5 -61.5t24.5 -55t40 -39.5t56 -15zM150 516q22 0 38.5 -11.5t27 -30.5t16 -42t5.5 -45t-5.5 -45t-16 -41.5
t-27 -30.5t-38.5 -12q-23 0 -39.5 12t-27 30.5t-16 41.5t-5.5 45t5.5 45t16 42t27 30.5t39.5 11.5z" />
    <glyph glyph-name="guillemotright" unicode="&#xbb;" horiz-adv-x="344" 
d="M323 334l-156 156q4 -14 7.5 -21.5t4.5 -24.5q0 -5 -5 -10.5t-7 -7.5l90 -76q10 -8 10 -16t-10 -16l-90 -76q2 -2 7 -7.5t5 -10.5q-1 -17 -4.5 -24.5t-7.5 -21.5zM180 334l-156 156q4 -14 7.5 -21.5t4.5 -24.5q0 -5 -5 -10.5t-7 -7.5l90 -76q10 -8 10 -16t-10 -16
l-90 -76q2 -2 7 -7.5t5 -10.5q-1 -17 -4.5 -24.5t-7.5 -21.5z" />
    <glyph glyph-name="onequarter" unicode="&#xbc;" horiz-adv-x="543" 
d="M130 683l-56 -41q9 -6 10.5 -19.5t1.5 -27.5v-205q0 -26 -12 -47h69q-13 20 -13 47v293zM522 678l-36 25l-465 -703l35 -26zM458 0h56v44h-56v169l-44 -43v-126h-101q26 49 44.5 88l34.5 75.5l32 75l36 86.5l-68 -36q-7 -20 -20.5 -55.5t-32 -80t-42.5 -95.5t-51 -102
h168v-194l44 -30v224z" />
    <glyph glyph-name="onehalf" unicode="&#xbd;" horiz-adv-x="609" 
d="M130 683l-56 -41q9 -6 10.5 -19.5t1.5 -27.5v-205q0 -26 -12 -47h69q-13 20 -13 47v293zM522 678l-36 25l-465 -703l35 -26zM568 0l16 86h-1q-10 -14 -25.5 -28t-36.5 -14h-87l58 49t49 48t34 48t13 49q0 29 -9.5 49.5t-25 33.5t-35 19t-38.5 6q-35 0 -67.5 -18.5
t-52.5 -47.5l39 -37q8 23 26.5 41t54.5 18q26 0 45 -16t19 -48q0 -23 -16 -46.5t-38 -45t-45 -40.5l-37 -31l-18 -14.5t-23 -19.5t-19.5 -19.5t-8.5 -15.5t11 -6h218z" />
    <glyph glyph-name="threequarters" unicode="&#xbe;" horiz-adv-x="757" 
d="M736 678l-36 25l-465 -703l35 -26zM672 0h56v44h-56v169l-44 -43v-126h-101q26 49 44.5 88l34.5 75.5l32 75l36 86.5l-68 -36q-7 -20 -20.5 -55.5t-32 -80t-42.5 -95.5t-51 -102h168v-194l44 -30v224zM180 447q16 10 32 22.5t29 28t21.5 34t8.5 40.5q0 30 -10.5 51
t-27 34.5t-35.5 19.5t-37 6q-42 0 -70.5 -15.5t-43.5 -34.5l40 -39q9 20 26.5 32.5t47.5 12.5q25 0 46 -16t21 -51q0 -37 -34.5 -65t-94.5 -60v-50q9 6 21.5 12t23.5 6q21 0 39.5 -11t32 -29t21.5 -41t8 -47q0 -26 -6.5 -51t-20 -44.5t-33.5 -32t-46 -12.5q-36 0 -59 17.5
t-36 34.5l-23 -42q6 -6 16.5 -15t25 -18t33.5 -15t43 -6q35 0 63 16t47.5 41.5t29.5 58.5t10 68q0 37 -10 66t-25.5 49t-35 31.5t-38.5 13.5z" />
    <glyph glyph-name="questiondown" unicode="&#xbf;" horiz-adv-x="340" 
d="M187 617q0 -19 11 -34.5t31 -15.5q19 0 30.5 15.5t11.5 34.5t-11.5 34.5t-30.5 15.5q-20 0 -31 -15.5t-11 -34.5zM276 85l-50 14.5t-63 27.5t-54 47t-23 73q0 33 12.5 52.5t30.5 30t37 14t33 3.5h61v187h-62v-125h-16q-24 0 -51.5 -9.5t-51 -29t-39.5 -50t-16 -73.5
q0 -40 16 -71t41.5 -55t57.5 -42.5t64.5 -32.5t62 -25.5t50.5 -20.5z" />
    <glyph glyph-name="Agrave" unicode="&#xc0;" horiz-adv-x="452" 
d="M97 232q3 71 11.5 140.5t24.5 125t40 89.5t57 34q28 0 47.5 -16t32.5 -41.5t20.5 -57.5t11.5 -65t5.5 -63t1.5 -51zM-44 -320q19 4 35.5 27t30.5 59t25 82t20 97.5t15 106t10 105.5l261 97l6 -154q1 -17 -1 -32.5t-4.5 -29t-5.5 -23.5t-4 -15h96l-10 42t-9 58
q-5 53 -6.5 116.5t-5 128.5t-12 126t-28 108t-53 75.5t-86.5 28.5q-41 0 -70.5 -22.5t-50.5 -60t-34.5 -85t-22 -97.5t-12 -98t-5.5 -86q-3 -71 -11.5 -150.5t-23.5 -147.5t-38 -116t-54 -56q23 -26 32 -46t16 -38zM256 767q-11 18 -20 39t-16 41.5t-11.5 38.5t-6.5 30
q-8 -23 -27 -37.5t-31 -21.5q6 -7 16 -17t22 -23.5t24.5 -30t23.5 -34.5z" />
    <glyph glyph-name="Aacute" unicode="&#xc1;" horiz-adv-x="452" 
d="M97 232q3 71 11.5 140.5t24.5 125t40 89.5t57 34q28 0 47.5 -16t32.5 -41.5t20.5 -57.5t11.5 -65t5.5 -63t1.5 -51zM-44 -320q19 4 35.5 27t30.5 59t25 82t20 97.5t15 106t10 105.5l261 97l6 -154q1 -17 -1 -32.5t-4.5 -29t-5.5 -23.5t-4 -15h96l-10 42t-9 58
q-5 53 -6.5 116.5t-5 128.5t-12 126t-28 108t-53 75.5t-86.5 28.5q-41 0 -70.5 -22.5t-50.5 -60t-34.5 -85t-22 -97.5t-12 -98t-5.5 -86q-3 -71 -11.5 -150.5t-23.5 -147.5t-38 -116t-54 -56q23 -26 32 -46t16 -38zM204 767l26 -15q10 18 23 34.5t25 30t22 23.5t16 17
q-12 7 -31 21.5t-27 37.5q-2 -12 -6.5 -30t-11.5 -38.5t-16.5 -41.5t-19.5 -39z" />
    <glyph glyph-name="Acircumflex" unicode="&#xc2;" horiz-adv-x="452" 
d="M97 232q3 71 11.5 140.5t24.5 125t40 89.5t57 34q28 0 47.5 -16t32.5 -41.5t20.5 -57.5t11.5 -65t5.5 -63t1.5 -51zM-44 -320q19 4 35.5 27t30.5 59t25 82t20 97.5t15 106t10 105.5l261 97l6 -154q1 -17 -1 -32.5t-4.5 -29t-5.5 -23.5t-4 -15h96l-10 42t-9 58
q-5 53 -6.5 116.5t-5 128.5t-12 126t-28 108t-53 75.5t-86.5 28.5q-41 0 -70.5 -22.5t-50.5 -60t-34.5 -85t-22 -97.5t-12 -98t-5.5 -86q-3 -71 -11.5 -150.5t-23.5 -147.5t-38 -116t-54 -56q23 -26 32 -46t16 -38zM230 892l-125 -125q11 3 17 6.5t20 3.5q4 0 8 -4l6 -6
l61 72q6 8 13 8t13 -8l61 -72l6 6t8 4q14 0 20 -3.5t17 -6.5z" />
    <glyph glyph-name="Atilde" unicode="&#xc3;" horiz-adv-x="452" 
d="M97 232q3 71 11.5 140.5t24.5 125t40 89.5t57 34q28 0 47.5 -16t32.5 -41.5t20.5 -57.5t11.5 -65t5.5 -63t1.5 -51zM-44 -320q19 4 35.5 27t30.5 59t25 82t20 97.5t15 106t10 105.5l261 97l6 -154q1 -17 -1 -32.5t-4.5 -29t-5.5 -23.5t-4 -15h96l-10 42t-9 58
q-5 53 -6.5 116.5t-5 128.5t-12 126t-28 108t-53 75.5t-86.5 28.5q-41 0 -70.5 -22.5t-50.5 -60t-34.5 -85t-22 -97.5t-12 -98t-5.5 -86q-3 -71 -11.5 -150.5t-23.5 -147.5t-38 -116t-54 -56q23 -26 32 -46t16 -38zM347 867q0 -3 -2.5 -11t-9.5 -17t-20 -15.5t-34 -6.5
q-16 0 -27.5 8t-22.5 17t-22.5 17t-27.5 8q-21 0 -34.5 -6.5t-20.5 -15.5t-9.5 -17t-2.5 -11v-50q0 3 2.5 11t9.5 17t20.5 15.5t34.5 6.5q16 0 27.5 -8t22.5 -17t22.5 -17t27.5 -8q21 0 34 6.5t20 15.5t9.5 17t2.5 11v50z" />
    <glyph glyph-name="Adieresis" unicode="&#xc4;" horiz-adv-x="452" 
d="M97 232q3 71 11.5 140.5t24.5 125t40 89.5t57 34q28 0 47.5 -16t32.5 -41.5t20.5 -57.5t11.5 -65t5.5 -63t1.5 -51zM-44 -320q19 4 35.5 27t30.5 59t25 82t20 97.5t15 106t10 105.5l261 97l6 -154q1 -17 -1 -32.5t-4.5 -29t-5.5 -23.5t-4 -15h96l-10 42t-9 58
q-5 53 -6.5 116.5t-5 128.5t-12 126t-28 108t-53 75.5t-86.5 28.5q-41 0 -70.5 -22.5t-50.5 -60t-34.5 -85t-22 -97.5t-12 -98t-5.5 -86q-3 -71 -11.5 -150.5t-23.5 -147.5t-38 -116t-54 -56q23 -26 32 -46t16 -38zM213 817q0 19 -11.5 34.5t-30.5 15.5q-20 0 -31 -15.5
t-11 -34.5t11 -34.5t31 -15.5q19 0 30.5 15.5t11.5 34.5zM331 817q0 19 -11.5 34.5t-30.5 15.5q-20 0 -31 -15.5t-11 -34.5t11 -34.5t31 -15.5q19 0 30.5 15.5t11.5 34.5z" />
    <glyph glyph-name="Aring" unicode="&#xc5;" horiz-adv-x="452" 
d="M97 232q3 71 11.5 140.5t24.5 125t40 89.5t57 34q28 0 47.5 -16t32.5 -41.5t20.5 -57.5t11.5 -65t5.5 -63t1.5 -51zM-44 -320q19 4 35.5 27t30.5 59t25 82t20 97.5t15 106t10 105.5l261 97l6 -154q1 -17 -1 -32.5t-4.5 -29t-5.5 -23.5t-4 -15h96l-10 42t-9 58
q-5 53 -6.5 116.5t-5 128.5t-12 126t-28 108t-53 75.5t-86.5 28.5q-41 0 -70.5 -22.5t-50.5 -60t-34.5 -85t-22 -97.5t-12 -98t-5.5 -86q-3 -71 -11.5 -150.5t-23.5 -147.5t-38 -116t-54 -56q23 -26 32 -46t16 -38zM230 910q-33 0 -56.5 -23.5t-23.5 -56.5t23.5 -56.5
t56.5 -23.5t56.5 23.5t23.5 56.5t-23.5 56.5t-56.5 23.5zM270 830q0 -17 -11.5 -28.5t-28.5 -11.5t-28.5 11.5t-11.5 28.5t11.5 28.5t28.5 11.5t28.5 -11.5t11.5 -28.5z" />
    <glyph glyph-name="AE" unicode="&#xc6;" horiz-adv-x="791" 
d="M97 232q3 71 11.5 140.5t24.5 125t40 89.5t57 34q28 0 47.5 -16t32.5 -41.5t20.5 -57.5t11.5 -65t5.5 -63t1.5 -51zM351 613q-20 33 -49.5 51.5t-71.5 18.5q-41 0 -70.5 -22.5t-50.5 -60t-34.5 -85t-22 -97.5t-12 -98t-5.5 -86q-3 -71 -11.5 -150.5t-23.5 -147.5
t-38 -116t-54 -56q23 -26 32 -46t16 -38q19 4 35.5 27t30.5 59t25 82t20 97.5t15 106t10 105.5l259 96v-191q0 -34 -17 -62h406q3 24 11 47.5t16 38.5q-14 -7 -33 -15.5t-48 -8.5h-273v185l151 73q18 8 32 8q10 0 18.5 -5t16.5 -13v126q-10 -14 -21 -23.5t-28 -17.5
l-169 -82v292h240q24 0 43 -7.5t36 -15.5q-7 14 -14.5 38t-10.5 47h-373q14 -22 17 -54z" />
    <glyph glyph-name="Ccedilla" unicode="&#xc7;" horiz-adv-x="454" 
d="M219 -165l71 71q26 -23 57 -53.5t60 -63t52 -62.5t32 -51q16 26 29.5 36.5t38.5 18.5q-44 57 -96 106l-104.5 95.5l-101.5 93.5t-87 99t-61 111.5t-23 132.5q0 60 12.5 107t33.5 79.5t48 49t57 16.5q20 0 40 -9t36 -22t27 -29t13 -29q16 25 30 37t41 23q-8 6 -24 21
t-39.5 30.5t-54.5 27.5t-69 12q-39 0 -77 -19t-68 -58t-49 -98t-19 -139q0 -77 18.5 -137.5t49.5 -111t71 -92.5t83 -81l-34 -34q-21 12 -36 19t-32 7q-10 0 -14 -4l-57 -57q13 6 41 6q12 0 26.5 -3.5t29 -9.5t27.5 -15t22 -21z" />
    <glyph glyph-name="Egrave" unicode="&#xc8;" horiz-adv-x="490" 
d="M33 0h406q3 24 11 47.5t16 38.5q-14 -7 -33 -15.5t-48 -8.5h-273v185l151 73q18 8 32 8q10 0 18.5 -5t16.5 -13v126q-10 -14 -21 -23.5t-28 -17.5l-169 -82v292h240q24 0 43 -7.5t36 -15.5q-7 14 -14.5 38t-10.5 47h-373q17 -28 17 -62v-543q0 -34 -17 -62zM256 767
q-11 18 -20 39t-16 41.5t-11.5 38.5t-6.5 30q-8 -23 -27 -37.5t-31 -21.5q6 -7 16 -17t22 -23.5t24.5 -30t23.5 -34.5z" />
    <glyph glyph-name="Eacute" unicode="&#xc9;" horiz-adv-x="490" 
d="M33 0h406q3 24 11 47.5t16 38.5q-14 -7 -33 -15.5t-48 -8.5h-273v185l151 73q18 8 32 8q10 0 18.5 -5t16.5 -13v126q-10 -14 -21 -23.5t-28 -17.5l-169 -82v292h240q24 0 43 -7.5t36 -15.5q-7 14 -14.5 38t-10.5 47h-373q17 -28 17 -62v-543q0 -34 -17 -62zM204 767
l26 -15q10 18 23 34.5t25 30t22 23.5t16 17q-12 7 -31 21.5t-27 37.5q-2 -12 -6.5 -30t-11.5 -38.5t-16.5 -41.5t-19.5 -39z" />
    <glyph glyph-name="Ecircumflex" unicode="&#xca;" horiz-adv-x="490" 
d="M33 0h406q3 24 11 47.5t16 38.5q-14 -7 -33 -15.5t-48 -8.5h-273v185l151 73q18 8 32 8q10 0 18.5 -5t16.5 -13v126q-10 -14 -21 -23.5t-28 -17.5l-169 -82v292h240q24 0 43 -7.5t36 -15.5q-7 14 -14.5 38t-10.5 47h-373q17 -28 17 -62v-543q0 -34 -17 -62zM230 892
l-125 -125q11 3 17 6.5t20 3.5q4 0 8 -4l6 -6l61 72q6 8 13 8t13 -8l61 -72l6 6t8 4q14 0 20 -3.5t17 -6.5z" />
    <glyph glyph-name="Edieresis" unicode="&#xcb;" horiz-adv-x="490" 
d="M33 0h406q3 24 11 47.5t16 38.5q-14 -7 -33 -15.5t-48 -8.5h-273v185l151 73q18 8 32 8q10 0 18.5 -5t16.5 -13v126q-10 -14 -21 -23.5t-28 -17.5l-169 -82v292h240q24 0 43 -7.5t36 -15.5q-7 14 -14.5 38t-10.5 47h-373q17 -28 17 -62v-543q0 -34 -17 -62zM213 817
q0 19 -11.5 34.5t-30.5 15.5q-20 0 -31 -15.5t-11 -34.5t11 -34.5t31 -15.5q19 0 30.5 15.5t11.5 34.5zM331 817q0 19 -11.5 34.5t-30.5 15.5q-20 0 -31 -15.5t-11 -34.5t11 -34.5t31 -15.5q19 0 30.5 15.5t11.5 34.5z" />
    <glyph glyph-name="Igrave" unicode="&#xcc;" horiz-adv-x="162" 
d="M112 605q0 34 17 62h-96q17 -28 17 -62v-543q0 -34 -17 -62h96q-17 28 -17 62v543zM107 767q-11 18 -20 39t-16 41.5t-11.5 38.5t-6.5 30q-8 -23 -27 -37.5t-31 -21.5q6 -7 16 -17t22 -23.5t24.5 -30t23.5 -34.5z" />
    <glyph glyph-name="Iacute" unicode="&#xcd;" horiz-adv-x="162" 
d="M112 605q0 34 17 62h-96q17 -28 17 -62v-543q0 -34 -17 -62h96q-17 28 -17 62v543zM55 767l26 -15q10 18 23 34.5t25 30t22 23.5t16 17q-12 7 -31 21.5t-27 37.5q-2 -12 -6.5 -30t-11.5 -38.5t-16.5 -41.5t-19.5 -39z" />
    <glyph glyph-name="Icircumflex" unicode="&#xce;" horiz-adv-x="162" 
d="M112 605q0 34 17 62h-96q17 -28 17 -62v-543q0 -34 -17 -62h96q-17 28 -17 62v543zM81 892l-125 -125q11 3 17 6.5t20 3.5q4 0 8 -4l6 -6l61 72q6 8 13 8t13 -8l61 -72l6 6t8 4q14 0 20 -3.5t17 -6.5z" />
    <glyph glyph-name="Idieresis" unicode="&#xcf;" horiz-adv-x="162" 
d="M112 605q0 34 17 62h-96q17 -28 17 -62v-543q0 -34 -17 -62h96q-17 28 -17 62v543zM64 817q0 19 -11.5 34.5t-30.5 15.5q-20 0 -31 -15.5t-11 -34.5t11 -34.5t31 -15.5q19 0 30.5 15.5t11.5 34.5zM182 817q0 19 -11.5 34.5t-30.5 15.5q-20 0 -31 -15.5t-11 -34.5
t11 -34.5t31 -15.5q19 0 30.5 15.5t11.5 34.5z" />
    <glyph glyph-name="Eth" unicode="&#xd0;" horiz-adv-x="599" 
d="M150 282v-220q0 -34 -17 -62h135q78 0 136 21t96 59t56.5 92t18.5 120q0 72 -26.5 128.5t-68 99t-92.5 72.5t-100 49t-90.5 29t-64.5 13q8 -17 12.5 -36.5t4.5 -41.5v-261h-86q0 -28 -10 -47t-30 -33l39 11.5t60 6.5h27zM212 344v248l28.5 -7t57.5 -20t71 -37t70 -56
t53 -77.5t21 -102.5q0 -69 -20.5 -114t-56.5 -70.5t-85 -35.5t-106 -10h-33v220h86q0 19 10 38t30 42l-39 -11.5t-60 -6.5h-27z" />
    <glyph glyph-name="Ntilde" unicode="&#xd1;" horiz-adv-x="418" 
d="M19 -333q21 20 46.5 35.5t67.5 32.5q-5 14 -13 47t-8 85v623h1l193 -490h62v345q0 89 7 153t18.5 107.5t25 69t26.5 37.5q-17 18 -23.5 35t-11.5 37q-21 -13 -39.5 -44.5t-33 -82.5t-23 -120.5t-8.5 -157.5v-216h-1l-172 433q-9 0 -20.5 1.5t-24.5 6.5t-27 15t-28 27
q3 -23 10.5 -64t7.5 -99v-516q0 -38 -2 -77.5t-6.5 -78.5t-10.5 -76t-13 -68zM347 867q0 -3 -2.5 -11t-9.5 -17t-20 -15.5t-34 -6.5q-16 0 -27.5 8t-22.5 17t-22.5 17t-27.5 8q-21 0 -34.5 -6.5t-20.5 -15.5t-9.5 -17t-2.5 -11v-50q0 3 2.5 11t9.5 17t20.5 15.5t34.5 6.5
q16 0 27.5 -8t22.5 -17t22.5 -17t27.5 -8q21 0 34 6.5t20 15.5t9.5 17t2.5 11v50z" />
    <glyph glyph-name="Ograve" unicode="&#xd2;" horiz-adv-x="518" 
d="M24 333q0 -60 11.5 -122t39 -113t72.5 -83t112 -32t112 32t72.5 83t39 113t11.5 122t-11.5 122t-39 113t-72.5 83t-112 32t-112 -32t-72.5 -83t-39 -113t-11.5 -122zM432 333q0 -50 -7.5 -101t-27 -92.5t-53 -68t-85.5 -26.5t-85.5 26.5t-53 68t-27 92.5t-7.5 101
t7.5 101.5t27 93t53 68t85.5 26.5t85.5 -26.5t53 -68t27 -93t7.5 -101.5zM285 767q-11 18 -20 39t-16 41.5t-11.5 38.5t-6.5 30q-8 -23 -27 -37.5t-31 -21.5q6 -7 16 -17t22 -23.5t24.5 -30t23.5 -34.5z" />
    <glyph glyph-name="Oacute" unicode="&#xd3;" horiz-adv-x="518" 
d="M24 333q0 -60 11.5 -122t39 -113t72.5 -83t112 -32t112 32t72.5 83t39 113t11.5 122t-11.5 122t-39 113t-72.5 83t-112 32t-112 -32t-72.5 -83t-39 -113t-11.5 -122zM432 333q0 -50 -7.5 -101t-27 -92.5t-53 -68t-85.5 -26.5t-85.5 26.5t-53 68t-27 92.5t-7.5 101
t7.5 101.5t27 93t53 68t85.5 26.5t85.5 -26.5t53 -68t27 -93t7.5 -101.5zM233 767l26 -15q10 18 23 34.5t25 30t22 23.5t16 17q-12 7 -31 21.5t-27 37.5q-2 -12 -6.5 -30t-11.5 -38.5t-16.5 -41.5t-19.5 -39z" />
    <glyph glyph-name="Ocircumflex" unicode="&#xd4;" horiz-adv-x="518" 
d="M24 333q0 -60 11.5 -122t39 -113t72.5 -83t112 -32t112 32t72.5 83t39 113t11.5 122t-11.5 122t-39 113t-72.5 83t-112 32t-112 -32t-72.5 -83t-39 -113t-11.5 -122zM432 333q0 -50 -7.5 -101t-27 -92.5t-53 -68t-85.5 -26.5t-85.5 26.5t-53 68t-27 92.5t-7.5 101
t7.5 101.5t27 93t53 68t85.5 26.5t85.5 -26.5t53 -68t27 -93t7.5 -101.5zM259 892l-125 -125q11 3 17 6.5t20 3.5q4 0 8 -4l6 -6l61 72q6 8 13 8t13 -8l61 -72l6 6t8 4q14 0 20 -3.5t17 -6.5z" />
    <glyph glyph-name="Otilde" unicode="&#xd5;" horiz-adv-x="518" 
d="M24 333q0 -60 11.5 -122t39 -113t72.5 -83t112 -32t112 32t72.5 83t39 113t11.5 122t-11.5 122t-39 113t-72.5 83t-112 32t-112 -32t-72.5 -83t-39 -113t-11.5 -122zM432 333q0 -50 -7.5 -101t-27 -92.5t-53 -68t-85.5 -26.5t-85.5 26.5t-53 68t-27 92.5t-7.5 101
t7.5 101.5t27 93t53 68t85.5 26.5t85.5 -26.5t53 -68t27 -93t7.5 -101.5zM376 867q0 -3 -2.5 -11t-9.5 -17t-20 -15.5t-34 -6.5q-16 0 -27.5 8t-22.5 17t-22.5 17t-27.5 8q-21 0 -34.5 -6.5t-20.5 -15.5t-9.5 -17t-2.5 -11v-50q0 3 2.5 11t9.5 17t20.5 15.5t34.5 6.5
q16 0 27.5 -8t22.5 -17t22.5 -17t27.5 -8q21 0 34 6.5t20 15.5t9.5 17t2.5 11v50z" />
    <glyph glyph-name="Odieresis" unicode="&#xd6;" horiz-adv-x="518" 
d="M24 333q0 -60 11.5 -122t39 -113t72.5 -83t112 -32t112 32t72.5 83t39 113t11.5 122t-11.5 122t-39 113t-72.5 83t-112 32t-112 -32t-72.5 -83t-39 -113t-11.5 -122zM432 333q0 -50 -7.5 -101t-27 -92.5t-53 -68t-85.5 -26.5t-85.5 26.5t-53 68t-27 92.5t-7.5 101
t7.5 101.5t27 93t53 68t85.5 26.5t85.5 -26.5t53 -68t27 -93t7.5 -101.5zM242 817q0 19 -11.5 34.5t-30.5 15.5q-20 0 -31 -15.5t-11 -34.5t11 -34.5t31 -15.5q19 0 30.5 15.5t11.5 34.5zM360 817q0 19 -11.5 34.5t-30.5 15.5q-20 0 -31 -15.5t-11 -34.5t11 -34.5t31 -15.5
q19 0 30.5 15.5t11.5 34.5z" />
    <glyph glyph-name="multiply" unicode="&#xd7;" horiz-adv-x="330" 
d="M165 368l-65 65q-28 -27 -76 -19l35.5 -19.5t46.5 -38.5l24 -23l-65 -65q27 -28 19 -76l19.5 35.5t38.5 46.5l23 24l65 -65q28 27 76 19l-35.5 19.5t-46.5 38.5l-24 23l65 65q-27 28 -19 76l-19.5 -35.5t-38.5 -46.5z" />
    <glyph glyph-name="Oslash" unicode="&#xd8;" horiz-adv-x="518" 
d="M72 104l-31 -42v-62l51 70q28 -40 69 -63.5t98 -23.5q67 0 112 32t72.5 83t39 113t11.5 122q0 59 -11 119t-37 110l31 43v62l-51 -71q-28 39 -69 63t-98 24q-67 0 -112 -32t-72.5 -83t-39 -113t-11.5 -122q0 -59 11 -119t37 -110zM129 123l277 384q14 -39 20 -84.5
t6 -89.5q0 -50 -7.5 -101t-27 -92.5t-53 -68t-85.5 -26.5q-48 0 -79 21.5t-51 56.5zM112 160q-14 39 -20 84t-6 89q0 50 7.5 101.5t27 93t53 68t85.5 26.5q48 0 79 -21.5t51 -56.5z" />
    <glyph glyph-name="Ugrave" unicode="&#xd9;" horiz-adv-x="504" 
d="M471 0q-17 28 -17 62v543q0 34 17 62h-96q17 -28 17 -62v-543h-154q-35 0 -63 10t-47.5 27t-30.5 39t-11 46q0 41 18.5 81.5t40 81.5t40 83.5t18.5 88.5q0 33 -8 59t-19 46t-22 33l-17 20q-5 -23 -17 -38t-31 -27q6 -4 15 -14t17 -22.5t14 -27.5t6 -29q0 -38 -18.5 -76.5
l-40 -79.5t-40 -85.5t-18.5 -93.5q0 -33 13 -65.5t39 -59t66 -43t94 -16.5h235zM285 767q-11 18 -20 39t-16 41.5t-11.5 38.5t-6.5 30q-8 -23 -27 -37.5t-31 -21.5q6 -7 16 -17t22 -23.5t24.5 -30t23.5 -34.5z" />
    <glyph glyph-name="Uacute" unicode="&#xda;" horiz-adv-x="504" 
d="M471 0q-17 28 -17 62v543q0 34 17 62h-96q17 -28 17 -62v-543h-154q-35 0 -63 10t-47.5 27t-30.5 39t-11 46q0 41 18.5 81.5t40 81.5t40 83.5t18.5 88.5q0 33 -8 59t-19 46t-22 33l-17 20q-5 -23 -17 -38t-31 -27q6 -4 15 -14t17 -22.5t14 -27.5t6 -29q0 -38 -18.5 -76.5
l-40 -79.5t-40 -85.5t-18.5 -93.5q0 -33 13 -65.5t39 -59t66 -43t94 -16.5h235zM233 767l26 -15q10 18 23 34.5t25 30t22 23.5t16 17q-12 7 -31 21.5t-27 37.5q-2 -12 -6.5 -30t-11.5 -38.5t-16.5 -41.5t-19.5 -39z" />
    <glyph glyph-name="Ucircumflex" unicode="&#xdb;" horiz-adv-x="504" 
d="M471 0q-17 28 -17 62v543q0 34 17 62h-96q17 -28 17 -62v-543h-154q-35 0 -63 10t-47.5 27t-30.5 39t-11 46q0 41 18.5 81.5t40 81.5t40 83.5t18.5 88.5q0 33 -8 59t-19 46t-22 33l-17 20q-5 -23 -17 -38t-31 -27q6 -4 15 -14t17 -22.5t14 -27.5t6 -29q0 -38 -18.5 -76.5
l-40 -79.5t-40 -85.5t-18.5 -93.5q0 -33 13 -65.5t39 -59t66 -43t94 -16.5h235zM259 892l-125 -125q11 3 17 6.5t20 3.5q4 0 8 -4l6 -6l61 72q6 8 13 8t13 -8l61 -72l6 6t8 4q14 0 20 -3.5t17 -6.5z" />
    <glyph glyph-name="Udieresis" unicode="&#xdc;" horiz-adv-x="504" 
d="M471 0q-17 28 -17 62v543q0 34 17 62h-96q17 -28 17 -62v-543h-154q-35 0 -63 10t-47.5 27t-30.5 39t-11 46q0 41 18.5 81.5t40 81.5t40 83.5t18.5 88.5q0 33 -8 59t-19 46t-22 33l-17 20q-5 -23 -17 -38t-31 -27q6 -4 15 -14t17 -22.5t14 -27.5t6 -29q0 -38 -18.5 -76.5
l-40 -79.5t-40 -85.5t-18.5 -93.5q0 -33 13 -65.5t39 -59t66 -43t94 -16.5h235zM242 817q0 19 -11.5 34.5t-30.5 15.5q-20 0 -31 -15.5t-11 -34.5t11 -34.5t31 -15.5q19 0 30.5 15.5t11.5 34.5zM360 817q0 19 -11.5 34.5t-30.5 15.5q-20 0 -31 -15.5t-11 -34.5t11 -34.5
t31 -15.5q19 0 30.5 15.5t11.5 34.5z" />
    <glyph glyph-name="Yacute" unicode="&#xdd;" horiz-adv-x="536" 
d="M302 62v207l134 251q24 45 47 76t44.5 51t40.5 31t36 16q-17 12 -22 26.5t-6 36.5q-18 -9 -40.5 -25t-46.5 -40t-48 -55.5t-45 -70.5l-125 -233l-145 271q-5 8 -6 14.5t-1 13.5q0 9 3.5 18t8.5 17h-119q4 -4 10.5 -12t13 -17l13 -18.5t9.5 -15.5l182 -335v-207
q0 -34 -17 -62h96q-17 28 -17 62zM245 767l26 -15q10 18 23 34.5t25 30t22 23.5t16 17q-12 7 -31 21.5t-27 37.5q-2 -12 -6.5 -30t-11.5 -38.5t-16.5 -41.5t-19.5 -39z" />
    <glyph glyph-name="Thorn" unicode="&#xde;" horiz-adv-x="463" 
d="M112 496h77q16 0 47 -3.5t62.5 -17.5t55 -41.5t23.5 -74.5q0 -43 -26 -84t-65.5 -78t-86 -69l-87.5 -58v426zM112 558v150q-7 -27 -31 -34t-48 -7q17 -28 17 -62v-623q0 -64 -3.5 -131t-13.5 -122q14 16 33.5 34.5t45.5 33.5v203q48 30 105 70t106.5 86.5t82.5 98.5
t33 107q0 46 -19 82.5t-52.5 61.5t-78.5 38.5t-97 13.5h-80z" />
    <glyph glyph-name="germandbls" unicode="&#xdf;" horiz-adv-x="619" 
d="M342 387l54 35t45.5 37.5t31 45t11.5 57.5q0 22 -7.5 48t-26.5 48t-51.5 36.5t-82.5 14.5q-41 0 -79.5 -17.5t-68.5 -49.5t-48 -78t-18 -103v-17h-81v-58h81v-444q0 -56 -8.5 -91t-21.5 -55.5t-27 -29.5t-24 -12q14 -15 21 -36t7 -43l31 24t36.5 44.5t30.5 77t13 121.5
v519q0 34 11.5 67t32 58.5t49 41.5t63.5 16q49 0 77 -19.5t28 -62.5q0 -21 -8.5 -37.5t-24 -30.5t-36 -28l-44.5 -30q-29 -20 -45 -51t-16 -69q0 -52 21.5 -83t54.5 -51t70.5 -33.5t70.5 -30.5t54.5 -41t21.5 -65q0 -35 -16.5 -62.5t-42.5 -49.5t-58.5 -38t-65 -28
t-60.5 -20l-46 -13q11 -14 23 -35t22 -50q9 12 23.5 23.5t29 20.5l25.5 15.5t14 8.5q14 8 48.5 25t70.5 44t63.5 66.5t27.5 92.5q0 55 -21.5 88t-54.5 54t-70.5 34t-70.5 28t-54.5 38t-21.5 62q0 23 10.5 41.5t26.5 29.5z" />
    <glyph glyph-name="agrave" unicode="&#xe0;" horiz-adv-x="370" 
d="M136 58q-21 0 -39 12.5t-18 33.5q0 23 15.5 39.5t39.5 29.5t52 24t54 25l30 16v-180h-134zM345 0q-17 28 -17 62v293q0 37 -26 63t-63 26h-156v-84q8 9 21 17.5t29 8.5h101q15 0 25.5 -10.5t10.5 -25.5v-31q0 -14 -18.5 -26t-46 -24.5l-60 -27t-60 -34t-46 -44.5
t-18.5 -59q0 -23 9.5 -42t25 -32.5t36 -21.5t43.5 -8h210zM227 565q-11 18 -20 39t-16 41.5t-11.5 38.5t-6.5 30q-8 -23 -27 -37.5t-31 -21.5q6 -7 16 -17t22 -23.5t24.5 -30t23.5 -34.5z" />
    <glyph glyph-name="aacute" unicode="&#xe1;" horiz-adv-x="370" 
d="M136 58q-21 0 -39 12.5t-18 33.5q0 23 15.5 39.5t39.5 29.5t52 24t54 25l30 16v-180h-134zM345 0q-17 28 -17 62v293q0 37 -26 63t-63 26h-156v-84q8 9 21 17.5t29 8.5h101q15 0 25.5 -10.5t10.5 -25.5v-31q0 -14 -18.5 -26t-46 -24.5l-60 -27t-60 -34t-46 -44.5
t-18.5 -59q0 -23 9.5 -42t25 -32.5t36 -21.5t43.5 -8h210zM175 565l26 -15q10 18 23 34.5t25 30t22 23.5t16 17q-12 7 -31 21.5t-27 37.5q-2 -12 -6.5 -30t-11.5 -38.5t-16.5 -41.5t-19.5 -39z" />
    <glyph glyph-name="acircumflex" unicode="&#xe2;" horiz-adv-x="370" 
d="M136 58q-21 0 -39 12.5t-18 33.5q0 23 15.5 39.5t39.5 29.5t52 24t54 25l30 16v-180h-134zM345 0q-17 28 -17 62v293q0 37 -26 63t-63 26h-156v-84q8 9 21 17.5t29 8.5h101q15 0 25.5 -10.5t10.5 -25.5v-31q0 -14 -18.5 -26t-46 -24.5l-60 -27t-60 -34t-46 -44.5
t-18.5 -59q0 -23 9.5 -42t25 -32.5t36 -21.5t43.5 -8h210zM201 675l-125 -125q11 3 17 6.5t20 3.5q4 0 8 -4l6 -6l61 72q6 8 13 8t13 -8l61 -72l6 6t8 4q14 0 20 -3.5t17 -6.5z" />
    <glyph glyph-name="atilde" unicode="&#xe3;" horiz-adv-x="370" 
d="M136 58q-21 0 -39 12.5t-18 33.5q0 23 15.5 39.5t39.5 29.5t52 24t54 25l30 16v-180h-134zM345 0q-17 28 -17 62v293q0 37 -26 63t-63 26h-156v-84q8 9 21 17.5t29 8.5h101q15 0 25.5 -10.5t10.5 -25.5v-31q0 -14 -18.5 -26t-46 -24.5l-60 -27t-60 -34t-46 -44.5
t-18.5 -59q0 -23 9.5 -42t25 -32.5t36 -21.5t43.5 -8h210zM317 650q0 -3 -2.5 -11t-9.5 -17t-20 -15.5t-34 -6.5q-16 0 -27.5 8t-22.5 17t-22.5 17t-27.5 8q-21 0 -34.5 -6.5t-20.5 -15.5t-9.5 -17t-2.5 -11v-50q0 3 2.5 11t9.5 17t20.5 15.5t34.5 6.5q16 0 27.5 -8
t22.5 -17t22.5 -17t27.5 -8q21 0 34 6.5t20 15.5t9.5 17t2.5 11v50z" />
    <glyph glyph-name="adieresis" unicode="&#xe4;" horiz-adv-x="370" 
d="M136 58q-21 0 -39 12.5t-18 33.5q0 23 15.5 39.5t39.5 29.5t52 24t54 25l30 16v-180h-134zM345 0q-17 28 -17 62v293q0 37 -26 63t-63 26h-156v-84q8 9 21 17.5t29 8.5h101q15 0 25.5 -10.5t10.5 -25.5v-31q0 -14 -18.5 -26t-46 -24.5l-60 -27t-60 -34t-46 -44.5
t-18.5 -59q0 -23 9.5 -42t25 -32.5t36 -21.5t43.5 -8h210zM184 600q0 19 -11.5 34.5t-30.5 15.5q-20 0 -31 -15.5t-11 -34.5t11 -34.5t31 -15.5q19 0 30.5 15.5t11.5 34.5zM302 600q0 19 -11.5 34.5t-30.5 15.5q-20 0 -31 -15.5t-11 -34.5t11 -34.5t31 -15.5q19 0 30.5 15.5
t11.5 34.5z" />
    <glyph glyph-name="aring" unicode="&#xe5;" horiz-adv-x="370" 
d="M136 58q-21 0 -39 12.5t-18 33.5q0 23 15.5 39.5t39.5 29.5t52 24t54 25l30 16v-180h-134zM345 0q-17 28 -17 62v293q0 37 -26 63t-63 26h-156v-84q8 9 21 17.5t29 8.5h101q15 0 25.5 -10.5t10.5 -25.5v-31q0 -14 -18.5 -26t-46 -24.5l-60 -27t-60 -34t-46 -44.5
t-18.5 -59q0 -23 9.5 -42t25 -32.5t36 -21.5t43.5 -8h210zM201 710q-33 0 -56.5 -23.5t-23.5 -56.5t23.5 -56.5t56.5 -23.5t56.5 23.5t23.5 56.5t-23.5 56.5t-56.5 23.5zM241 630q0 -17 -11.5 -28.5t-28.5 -11.5t-28.5 11.5t-11.5 28.5t11.5 28.5t28.5 11.5t28.5 -11.5
t11.5 -28.5z" />
    <glyph glyph-name="ae" unicode="&#xe6;" horiz-adv-x="664" 
d="M136 58q-21 0 -39 12.5t-18 33.5q0 23 15.5 39.5t39.5 29.5t52 24t54 25l30 16v-180h-134zM329 45q24 -28 57.5 -45t75.5 -17q52 0 86.5 21.5t55.5 49t29.5 55t8.5 39.5l-58 29v-18q0 -19 -8.5 -39.5t-24.5 -38t-38.5 -29t-50.5 -11.5q-26 0 -46 9.5t-34 23t-22.5 27
t-9.5 22.5l293 166q0 13 -7.5 41.5t-28 57.5t-56 51t-91.5 22q-45 0 -79.5 -20.5t-58.5 -52.5q-10 25 -32.5 40.5t-50.5 15.5h-156v-84q8 9 21 17.5t29 8.5h101q15 0 25.5 -10.5t10.5 -25.5v-31q0 -14 -18.5 -26t-46 -24.5l-60 -27t-60 -34t-46 -44.5t-18.5 -59
q0 -23 9.5 -42t25 -32.5t36 -21.5t43.5 -8h210q-13 22 -16 45zM328 215q0 33 8 66.5t24 60.5t41 44t59 17q33 0 55 -11t35.5 -25.5t19.5 -28t7 -18.5l-246 -139q-1 5 -2 14t-1 20z" />
    <glyph glyph-name="ccedilla" unicode="&#xe7;" horiz-adv-x="352" 
d="M177 -207l37 66l27 -46t18 -37q11 21 22 39.5t26 38.5l-35.5 42.5l-45 52.5l-40 47.5l-21.5 26.5q-25 35 -41.5 61.5t-26.5 49.5t-14 46t-4 52q0 34 8 65.5t22 54.5t32 37t39 14q19 0 33 -7.5t24 -19t16 -24.5t10 -23q14 18 32 33.5t36 23.5q-15 9 -25.5 16t-23.5 17
q-32 24 -53 33t-49 9q-34 0 -63 -17.5t-50.5 -48.5t-33.5 -73t-12 -90q0 -44 12 -83.5t33 -77t49 -75.5l60 -79q2 -2 4.5 -6t6.5 -9l-23 -38q-23 17 -41.5 23t-27.5 6t-14 -5l-49 -49q15 3 29 3q21 0 40 -5t34.5 -12.5t26.5 -16t16 -15.5z" />
    <glyph glyph-name="egrave" unicode="&#xe8;" horiz-adv-x="415" 
d="M335 177v-18q0 -19 -8.5 -39.5t-24.5 -38t-38.5 -29t-50.5 -11.5q-26 0 -46 9.5t-34 23t-22.5 27t-9.5 22.5l293 166q0 13 -7.5 41.5t-28 57.5t-56 51t-91.5 22q-47 0 -82.5 -22t-59.5 -57.5t-36 -79.5t-12 -87q0 -42 12.5 -83.5t36.5 -74.5t60 -53.5t83 -20.5
q52 0 86.5 21.5t55.5 49t29.5 55t8.5 39.5zM79 215q0 33 8 66.5t24 60.5t41 44t59 17q33 0 55 -11t35.5 -25.5t19.5 -28t7 -18.5l-246 -139q-1 5 -2 14t-1 20zM237 565q-11 18 -20 39t-16 41.5t-11.5 38.5t-6.5 30q-8 -23 -27 -37.5t-31 -21.5q6 -7 16 -17t22 -23.5
t24.5 -30t23.5 -34.5z" />
    <glyph glyph-name="eacute" unicode="&#xe9;" horiz-adv-x="415" 
d="M335 177v-18q0 -19 -8.5 -39.5t-24.5 -38t-38.5 -29t-50.5 -11.5q-26 0 -46 9.5t-34 23t-22.5 27t-9.5 22.5l293 166q0 13 -7.5 41.5t-28 57.5t-56 51t-91.5 22q-47 0 -82.5 -22t-59.5 -57.5t-36 -79.5t-12 -87q0 -42 12.5 -83.5t36.5 -74.5t60 -53.5t83 -20.5
q52 0 86.5 21.5t55.5 49t29.5 55t8.5 39.5zM79 215q0 33 8 66.5t24 60.5t41 44t59 17q33 0 55 -11t35.5 -25.5t19.5 -28t7 -18.5l-246 -139q-1 5 -2 14t-1 20zM185 565l26 -15q10 18 23 34.5t25 30t22 23.5t16 17q-12 7 -31 21.5t-27 37.5q-2 -12 -6.5 -30t-11.5 -38.5
t-16.5 -41.5t-19.5 -39z" />
    <glyph glyph-name="ecircumflex" unicode="&#xea;" horiz-adv-x="415" 
d="M335 177v-18q0 -19 -8.5 -39.5t-24.5 -38t-38.5 -29t-50.5 -11.5q-26 0 -46 9.5t-34 23t-22.5 27t-9.5 22.5l293 166q0 13 -7.5 41.5t-28 57.5t-56 51t-91.5 22q-47 0 -82.5 -22t-59.5 -57.5t-36 -79.5t-12 -87q0 -42 12.5 -83.5t36.5 -74.5t60 -53.5t83 -20.5
q52 0 86.5 21.5t55.5 49t29.5 55t8.5 39.5zM79 215q0 33 8 66.5t24 60.5t41 44t59 17q33 0 55 -11t35.5 -25.5t19.5 -28t7 -18.5l-246 -139q-1 5 -2 14t-1 20zM211 675l-125 -125q11 3 17 6.5t20 3.5q4 0 8 -4l6 -6l61 72q6 8 13 8t13 -8l61 -72l6 6t8 4q14 0 20 -3.5
t17 -6.5z" />
    <glyph glyph-name="edieresis" unicode="&#xeb;" horiz-adv-x="415" 
d="M335 177v-18q0 -19 -8.5 -39.5t-24.5 -38t-38.5 -29t-50.5 -11.5q-26 0 -46 9.5t-34 23t-22.5 27t-9.5 22.5l293 166q0 13 -7.5 41.5t-28 57.5t-56 51t-91.5 22q-47 0 -82.5 -22t-59.5 -57.5t-36 -79.5t-12 -87q0 -42 12.5 -83.5t36.5 -74.5t60 -53.5t83 -20.5
q52 0 86.5 21.5t55.5 49t29.5 55t8.5 39.5zM79 215q0 33 8 66.5t24 60.5t41 44t59 17q33 0 55 -11t35.5 -25.5t19.5 -28t7 -18.5l-246 -139q-1 5 -2 14t-1 20zM194 600q0 19 -11.5 34.5t-30.5 15.5q-20 0 -31 -15.5t-11 -34.5t11 -34.5t31 -15.5q19 0 30.5 15.5t11.5 34.5z
M312 600q0 19 -11.5 34.5t-30.5 15.5q-20 0 -31 -15.5t-11 -34.5t11 -34.5t31 -15.5q19 0 30.5 15.5t11.5 34.5z" />
    <glyph glyph-name="igrave" unicode="&#xec;" horiz-adv-x="158" 
d="M108 382q0 34 17 62h-92q17 -28 17 -62v-320q0 -34 -17 -62h92q-17 28 -17 62v320zM105 565q-11 18 -20 39t-16 41.5t-11.5 38.5t-6.5 30q-8 -23 -27 -37.5t-31 -21.5q6 -7 16 -17t22 -23.5t24.5 -30t23.5 -34.5z" />
    <glyph glyph-name="iacute" unicode="&#xed;" horiz-adv-x="158" 
d="M108 382q0 34 17 62h-92q17 -28 17 -62v-320q0 -34 -17 -62h92q-17 28 -17 62v320zM53 565l26 -15q10 18 23 34.5t25 30t22 23.5t16 17q-12 7 -31 21.5t-27 37.5q-2 -12 -6.5 -30t-11.5 -38.5t-16.5 -41.5t-19.5 -39z" />
    <glyph glyph-name="icircumflex" unicode="&#xee;" horiz-adv-x="158" 
d="M108 382q0 34 17 62h-92q17 -28 17 -62v-320q0 -34 -17 -62h92q-17 28 -17 62v320zM79 675l-125 -125q11 3 17 6.5t20 3.5q4 0 8 -4l6 -6l61 72q6 8 13 8t13 -8l61 -72l6 6t8 4q14 0 20 -3.5t17 -6.5z" />
    <glyph glyph-name="idieresis" unicode="&#xef;" horiz-adv-x="158" 
d="M108 382q0 34 17 62h-92q17 -28 17 -62v-320q0 -34 -17 -62h92q-17 28 -17 62v320zM62 600q0 19 -11.5 34.5t-30.5 15.5q-20 0 -31 -15.5t-11 -34.5t11 -34.5t31 -15.5q19 0 30.5 15.5t11.5 34.5zM180 600q0 19 -11.5 34.5t-30.5 15.5q-20 0 -31 -15.5t-11 -34.5
t11 -34.5t31 -15.5q19 0 30.5 15.5t11.5 34.5z" />
    <glyph glyph-name="eth" unicode="&#xf0;" 
d="M381 222q0 103 -33.5 184.5t-85.5 138.5h30q0 9 5.5 17.5t14.5 16.5q-8 -3 -19 -6.5t-30 -3.5h-25q-22 20 -45.5 36t-47.5 27q31 -16 65 -63h-34q0 -17 -20 -34q8 3 19 6.5t30 3.5h21q30 -47 52 -105q-17 10 -36 15.5t-41 5.5q-44 0 -77.5 -21t-56.5 -54.5t-34.5 -76.5
t-11.5 -87t11.5 -86.5t34.5 -76.5t56.5 -55t77.5 -21t77.5 21t56.5 55t34.5 76.5t11.5 86.5zM201 403q31 0 54 -16.5t38 -42.5t22.5 -58.5t7.5 -63.5t-7.5 -63t-22.5 -58.5t-38 -43t-54 -16.5t-54 16.5t-38 43t-22.5 58.5t-7.5 63t7.5 63.5t22.5 58.5t38 42.5t54 16.5z" />
    <glyph glyph-name="ntilde" unicode="&#xf1;" horiz-adv-x="412" 
d="M33 444q17 -28 17 -62v-320q0 -34 -17 -62h92q-17 28 -17 62v324h73q18 0 44 -6t50 -21t41 -41t17 -66q0 -46 -23 -102t-51.5 -111.5l-52.5 -106.5t-27 -88q20 -8 39 -22t43 -41h1q-4 6 -8.5 20.5t-4.5 26.5q0 27 8 60t21 61t32 65t37 78t31 82.5t13 77.5
q0 60 -23.5 97.5t-57.5 58.5t-71.5 28.5t-64.5 7.5h-141zM317 650q0 -3 -2.5 -11t-9.5 -17t-20 -15.5t-34 -6.5q-16 0 -27.5 8t-22.5 17t-22.5 17t-27.5 8q-21 0 -34.5 -6.5t-20.5 -15.5t-9.5 -17t-2.5 -11v-50q0 3 2.5 11t9.5 17t20.5 15.5t34.5 6.5q16 0 27.5 -8t22.5 -17
t22.5 -17t27.5 -8q21 0 34 6.5t20 15.5t9.5 17t2.5 11v50z" />
    <glyph glyph-name="ograve" unicode="&#xf2;" 
d="M201 -17q44 0 77.5 21t56.5 55t34.5 76.5t11.5 86.5t-11.5 87t-34.5 76.5t-56.5 54.5t-77.5 21t-77.5 -21t-56.5 -54.5t-34.5 -76.5t-11.5 -87t11.5 -86.5t34.5 -76.5t56.5 -55t77.5 -21zM201 403q31 0 54 -16.5t38 -42.5t22.5 -58.5t7.5 -63.5t-7.5 -63t-22.5 -58.5
t-38 -43t-54 -16.5t-54 16.5t-38 43t-22.5 58.5t-7.5 63t7.5 63.5t22.5 58.5t38 42.5t54 16.5zM227 565q-11 18 -20 39t-16 41.5t-11.5 38.5t-6.5 30q-8 -23 -27 -37.5t-31 -21.5q6 -7 16 -17t22 -23.5t24.5 -30t23.5 -34.5z" />
    <glyph glyph-name="oacute" unicode="&#xf3;" 
d="M201 -17q44 0 77.5 21t56.5 55t34.5 76.5t11.5 86.5t-11.5 87t-34.5 76.5t-56.5 54.5t-77.5 21t-77.5 -21t-56.5 -54.5t-34.5 -76.5t-11.5 -87t11.5 -86.5t34.5 -76.5t56.5 -55t77.5 -21zM201 403q31 0 54 -16.5t38 -42.5t22.5 -58.5t7.5 -63.5t-7.5 -63t-22.5 -58.5
t-38 -43t-54 -16.5t-54 16.5t-38 43t-22.5 58.5t-7.5 63t7.5 63.5t22.5 58.5t38 42.5t54 16.5zM175 565l26 -15q10 18 23 34.5t25 30t22 23.5t16 17q-12 7 -31 21.5t-27 37.5q-2 -12 -6.5 -30t-11.5 -38.5t-16.5 -41.5t-19.5 -39z" />
    <glyph glyph-name="ocircumflex" unicode="&#xf4;" 
d="M201 -17q44 0 77.5 21t56.5 55t34.5 76.5t11.5 86.5t-11.5 87t-34.5 76.5t-56.5 54.5t-77.5 21t-77.5 -21t-56.5 -54.5t-34.5 -76.5t-11.5 -87t11.5 -86.5t34.5 -76.5t56.5 -55t77.5 -21zM201 403q31 0 54 -16.5t38 -42.5t22.5 -58.5t7.5 -63.5t-7.5 -63t-22.5 -58.5
t-38 -43t-54 -16.5t-54 16.5t-38 43t-22.5 58.5t-7.5 63t7.5 63.5t22.5 58.5t38 42.5t54 16.5zM201 675l-125 -125q11 3 17 6.5t20 3.5q4 0 8 -4l6 -6l61 72q6 8 13 8t13 -8l61 -72l6 6t8 4q14 0 20 -3.5t17 -6.5z" />
    <glyph glyph-name="otilde" unicode="&#xf5;" 
d="M201 -17q44 0 77.5 21t56.5 55t34.5 76.5t11.5 86.5t-11.5 87t-34.5 76.5t-56.5 54.5t-77.5 21t-77.5 -21t-56.5 -54.5t-34.5 -76.5t-11.5 -87t11.5 -86.5t34.5 -76.5t56.5 -55t77.5 -21zM201 403q31 0 54 -16.5t38 -42.5t22.5 -58.5t7.5 -63.5t-7.5 -63t-22.5 -58.5
t-38 -43t-54 -16.5t-54 16.5t-38 43t-22.5 58.5t-7.5 63t7.5 63.5t22.5 58.5t38 42.5t54 16.5zM317 650q0 -3 -2.5 -11t-9.5 -17t-20 -15.5t-34 -6.5q-16 0 -27.5 8t-22.5 17t-22.5 17t-27.5 8q-21 0 -34.5 -6.5t-20.5 -15.5t-9.5 -17t-2.5 -11v-50q0 3 2.5 11t9.5 17
t20.5 15.5t34.5 6.5q16 0 27.5 -8t22.5 -17t22.5 -17t27.5 -8q21 0 34 6.5t20 15.5t9.5 17t2.5 11v50z" />
    <glyph glyph-name="odieresis" unicode="&#xf6;" 
d="M201 -17q44 0 77.5 21t56.5 55t34.5 76.5t11.5 86.5t-11.5 87t-34.5 76.5t-56.5 54.5t-77.5 21t-77.5 -21t-56.5 -54.5t-34.5 -76.5t-11.5 -87t11.5 -86.5t34.5 -76.5t56.5 -55t77.5 -21zM201 403q31 0 54 -16.5t38 -42.5t22.5 -58.5t7.5 -63.5t-7.5 -63t-22.5 -58.5
t-38 -43t-54 -16.5t-54 16.5t-38 43t-22.5 58.5t-7.5 63t7.5 63.5t22.5 58.5t38 42.5t54 16.5zM184 600q0 19 -11.5 34.5t-30.5 15.5q-20 0 -31 -15.5t-11 -34.5t11 -34.5t31 -15.5q19 0 30.5 15.5t11.5 34.5zM302 600q0 19 -11.5 34.5t-30.5 15.5q-20 0 -31 -15.5
t-11 -34.5t11 -34.5t31 -15.5q19 0 30.5 15.5t11.5 34.5z" />
    <glyph glyph-name="oslash" unicode="&#xf8;" 
d="M55 78l-17 -20v-58l38 46q23 -29 54.5 -46t70.5 -17q44 0 77.5 21t56.5 55t34.5 76.5t11.5 86.5q0 38 -8.5 74.5t-25.5 68.5l17 21v58l-38 -46q-23 29 -54 46t-71 17q-44 0 -77.5 -21t-56.5 -54.5t-34.5 -76.5t-11.5 -87q0 -79 34 -144zM96 127q-17 46 -17 95
q0 31 7.5 63.5t22.5 58.5t38 42.5t54 16.5q29 0 50 -13.5t36 -36.5zM115 91l191 227q17 -49 17 -96q0 -31 -7.5 -63t-22.5 -58.5t-38 -43t-54 -16.5q-29 0 -50 13.5t-36 36.5z" />
    <glyph glyph-name="ugrave" unicode="&#xf9;" horiz-adv-x="400" 
d="M198 0h181q-17 28 -17 62v320q0 34 17 62h-92q17 -28 17 -62v-324h-113q-16 0 -35.5 3.5t-36.5 13.5t-28.5 28.5t-11.5 47.5t9 50t20.5 40t20.5 38.5t9 46.5q0 34 -11 61t-31 53q-19 -29 -50 -43q13 -14 23.5 -31.5t10.5 -39.5q0 -25 -9 -42.5t-20.5 -35.5t-20.5 -40
t-9 -57q0 -52 19.5 -82t47 -45.5t58 -19.5t52.5 -4zM227 565q-11 18 -20 39t-16 41.5t-11.5 38.5t-6.5 30q-8 -23 -27 -37.5t-31 -21.5q6 -7 16 -17t22 -23.5t24.5 -30t23.5 -34.5z" />
    <glyph glyph-name="uacute" unicode="&#xfa;" horiz-adv-x="400" 
d="M198 0h181q-17 28 -17 62v320q0 34 17 62h-92q17 -28 17 -62v-324h-113q-16 0 -35.5 3.5t-36.5 13.5t-28.5 28.5t-11.5 47.5t9 50t20.5 40t20.5 38.5t9 46.5q0 34 -11 61t-31 53q-19 -29 -50 -43q13 -14 23.5 -31.5t10.5 -39.5q0 -25 -9 -42.5t-20.5 -35.5t-20.5 -40
t-9 -57q0 -52 19.5 -82t47 -45.5t58 -19.5t52.5 -4zM175 565l26 -15q10 18 23 34.5t25 30t22 23.5t16 17q-12 7 -31 21.5t-27 37.5q-2 -12 -6.5 -30t-11.5 -38.5t-16.5 -41.5t-19.5 -39z" />
    <glyph glyph-name="ucircumflex" unicode="&#xfb;" horiz-adv-x="400" 
d="M198 0h181q-17 28 -17 62v320q0 34 17 62h-92q17 -28 17 -62v-324h-113q-16 0 -35.5 3.5t-36.5 13.5t-28.5 28.5t-11.5 47.5t9 50t20.5 40t20.5 38.5t9 46.5q0 34 -11 61t-31 53q-19 -29 -50 -43q13 -14 23.5 -31.5t10.5 -39.5q0 -25 -9 -42.5t-20.5 -35.5t-20.5 -40
t-9 -57q0 -52 19.5 -82t47 -45.5t58 -19.5t52.5 -4zM201 675l-125 -125q11 3 17 6.5t20 3.5q4 0 8 -4l6 -6l61 72q6 8 13 8t13 -8l61 -72l6 6t8 4q14 0 20 -3.5t17 -6.5z" />
    <glyph glyph-name="udieresis" unicode="&#xfc;" horiz-adv-x="400" 
d="M198 0h181q-17 28 -17 62v320q0 34 17 62h-92q17 -28 17 -62v-324h-113q-16 0 -35.5 3.5t-36.5 13.5t-28.5 28.5t-11.5 47.5t9 50t20.5 40t20.5 38.5t9 46.5q0 34 -11 61t-31 53q-19 -29 -50 -43q13 -14 23.5 -31.5t10.5 -39.5q0 -25 -9 -42.5t-20.5 -35.5t-20.5 -40
t-9 -57q0 -52 19.5 -82t47 -45.5t58 -19.5t52.5 -4zM184 600q0 19 -11.5 34.5t-30.5 15.5q-20 0 -31 -15.5t-11 -34.5t11 -34.5t31 -15.5q19 0 30.5 15.5t11.5 34.5zM302 600q0 19 -11.5 34.5t-30.5 15.5q-20 0 -31 -15.5t-11 -34.5t11 -34.5t31 -15.5q19 0 30.5 15.5
t11.5 34.5z" />
    <glyph glyph-name="yacute" unicode="&#xfd;" horiz-adv-x="375" 
d="M380 444h-107q4 -5 9 -15.5t5 -24.5q0 -8 -3 -18l-98 -307l-94 297q-7 20 -9.5 42.5t-4.5 42.5q-2 -9 -6.5 -21t-12.5 -23t-20.5 -19t-30.5 -8q8 -8 19.5 -26.5t19.5 -40.5l113 -327l-31 -93q-8 -23 -22 -41t-32.5 -31t-39 -20.5t-40.5 -9.5q8 -14 15 -30t11 -30
q22 2 46 14.5t46.5 32.5t41 47t28.5 57l161 494q5 17 15 32t21 26zM160 565l26 -15q10 18 23 34.5t25 30t22 23.5t16 17q-12 7 -31 21.5t-27 37.5q-2 -12 -6.5 -30t-11.5 -38.5t-16.5 -41.5t-19.5 -39z" />
    <glyph glyph-name="thorn" unicode="&#xfe;" horiz-adv-x="418" 
d="M108 51v335h92q23 0 47.5 -3t45 -12t33.5 -25.5t13 -42.5q0 -38 -17.5 -70.5t-48 -62.5t-73 -59t-92.5 -60zM50 605v-844q0 -17 -5.5 -42t-11.5 -45l75 54v255l101.5 64t93 71t68 83t26.5 102q0 70 -55 105.5t-150 35.5h-84v264q-2 -14 -9.5 -22t-18 -12t-23 -5.5
t-24.5 -1.5q17 -28 17 -62z" />
    <glyph glyph-name="ydieresis" unicode="&#xff;" horiz-adv-x="375" 
d="M380 444h-107q4 -5 9 -15.5t5 -24.5q0 -8 -3 -18l-98 -307l-94 297q-7 20 -9.5 42.5t-4.5 42.5q-2 -9 -6.5 -21t-12.5 -23t-20.5 -19t-30.5 -8q8 -8 19.5 -26.5t19.5 -40.5l113 -327l-31 -93q-8 -23 -22 -41t-32.5 -31t-39 -20.5t-40.5 -9.5q8 -14 15 -30t11 -30
q22 2 46 14.5t46.5 32.5t41 47t28.5 57l161 494q5 17 15 32t21 26zM169 600q0 19 -11.5 34.5t-30.5 15.5q-20 0 -31 -15.5t-11 -34.5t11 -34.5t31 -15.5q19 0 30.5 15.5t11.5 34.5zM287 600q0 19 -11.5 34.5t-30.5 15.5q-20 0 -31 -15.5t-11 -34.5t11 -34.5t31 -15.5
q19 0 30.5 15.5t11.5 34.5z" />
    <glyph glyph-name="minus" unicode="&#xe000;" horiz-adv-x="362" 
d="M298 308q0 39 40 68l-39 -11.5t-60 -6.5h-175q0 -39 -40 -68l39 11.5t60 6.5h175z" />
    <glyph glyph-name="partialdiff" unicode="&#xe001;" horiz-adv-x="699" 
d="M130 683l-56 -41q9 -6 10.5 -19.5t1.5 -27.5v-205q0 -26 -12 -47h69q-13 20 -13 47v293zM522 678l-36 25l-465 -703l35 -26zM569 225q16 10 32 22.5t29 28t21.5 34t8.5 40.5q0 30 -10.5 51t-27 34.5t-35.5 19.5t-37 6q-42 0 -70.5 -15.5t-43.5 -34.5l40 -39
q9 20 26.5 32.5t47.5 12.5q25 0 46 -16t21 -51q0 -37 -34.5 -65t-94.5 -60v-50q9 6 21.5 12t23.5 6q21 0 39.5 -11t32 -29t21.5 -41t8 -47q0 -26 -6.5 -51t-20 -44.5t-33.5 -32t-46 -12.5q-36 0 -59 17.5t-36 34.5l-23 -42q6 -6 16.5 -15t25 -18t33.5 -15t43 -6q35 0 63 16
t47.5 41.5t29.5 58.5t10 68q0 37 -10 66t-25.5 49t-35 31.5t-38.5 13.5z" />
    <glyph glyph-name="summation" unicode="&#xe002;" horiz-adv-x="543" 
d="M130 683l-56 -41q9 -6 10.5 -19.5t1.5 -27.5v-205q0 -26 -12 -47h69q-13 20 -13 47v293zM522 678l-36 25l-465 -703l35 -26zM458 0h56v44h-56v169l-44 -43v-126h-101q26 49 44.5 88l34.5 75.5l32 75l36 86.5l-68 -36q-7 -20 -20.5 -55.5t-32 -80t-42.5 -95.5t-51 -102
h168v-194l44 -30v224z" />
    <glyph glyph-name="product" unicode="&#xe003;" horiz-adv-x="791" 
d="M614 678l-36 25l-465 -703l35 -26zM661 225q16 10 32 22.5t29 28t21.5 34t8.5 40.5q0 30 -10.5 51t-27 34.5t-35.5 19.5t-37 6q-42 0 -70.5 -15.5t-43.5 -34.5l40 -39q9 20 26.5 32.5t47.5 12.5q25 0 46 -16t21 -51q0 -37 -34.5 -65t-94.5 -60v-50q9 6 21.5 12t23.5 6
q21 0 39.5 -11t32 -29t21.5 -41t8 -47q0 -26 -6.5 -51t-20 -44.5t-33.5 -32t-46 -12.5q-36 0 -59 17.5t-36 34.5l-23 -42q6 -6 16.5 -15t25 -18t33.5 -15t43 -6q35 0 63 16t47.5 41.5t29.5 58.5t10 68q0 37 -10 66t-25.5 49t-35 31.5t-38.5 13.5zM250 337l16 86h-1
q-10 -14 -25.5 -28t-36.5 -14h-87l58 49t49 48t34 48t13 49q0 29 -9.5 49.5t-25 33.5t-35 19t-38.5 6q-35 0 -67.5 -18.5t-52.5 -47.5l39 -37q8 23 26.5 41t54.5 18q26 0 45 -16t19 -48q0 -23 -16 -46.5t-38 -45t-45 -40.5l-37 -31l-18 -14.5t-23 -19.5t-19.5 -19.5
t-8.5 -15.5t11 -6h218z" />
    <glyph glyph-name="pi" unicode="&#xe004;" horiz-adv-x="757" 
d="M736 678l-36 25l-465 -703l35 -26zM672 0h56v44h-56v169l-44 -43v-126h-101q26 49 44.5 88l34.5 75.5l32 75l36 86.5l-68 -36q-7 -20 -20.5 -55.5t-32 -80t-42.5 -95.5t-51 -102h168v-194l44 -30v224zM180 447q16 10 32 22.5t29 28t21.5 34t8.5 40.5q0 30 -10.5 51
t-27 34.5t-35.5 19.5t-37 6q-42 0 -70.5 -15.5t-43.5 -34.5l40 -39q9 20 26.5 32.5t47.5 12.5q25 0 46 -16t21 -51q0 -37 -34.5 -65t-94.5 -60v-50q9 6 21.5 12t23.5 6q21 0 39.5 -11t32 -29t21.5 -41t8 -47q0 -26 -6.5 -51t-20 -44.5t-33.5 -32t-46 -12.5q-36 0 -59 17.5
t-36 34.5l-23 -42q6 -6 16.5 -15t25 -18t33.5 -15t43 -6q35 0 63 16t47.5 41.5t29.5 58.5t10 68q0 37 -10 66t-25.5 49t-35 31.5t-38.5 13.5z" />
    <glyph glyph-name="integral" unicode="&#xe005;" horiz-adv-x="733" 
d="M33 667v-667h667v667h-667zM60 640h613v-613h-613v613z" />
    <glyph glyph-name="radical" unicode="&#xe006;" horiz-adv-x="818" 
d="M21 384v-138l246 -246l530 530v137l-530 -530z" />
    <glyph glyph-name="approxequal" unicode="&#xe007;" horiz-adv-x="709" 
d="M421 401v-135h-133v135h133zM221 467h-67q-27 0 -46.5 19.5t-19.5 47.5q0 27 19.5 47t46.5 20q28 0 47.5 -20t19.5 -47v-67zM221 401v-135h-67q-27 0 -51.5 -10.5t-42.5 -28.5t-28.5 -42.5t-10.5 -51.5t10.5 -51.5t28.5 -42.5t42.5 -28.5t51.5 -10.5q28 0 52.5 10.5
t42.5 28.5t28.5 42.5t10.5 51.5v67h133v-67q0 -27 10.5 -51t28.5 -42.5t42.5 -29t52.5 -10.5q27 0 51.5 10.5t42.5 28.5t28.5 42.5t10.5 51.5t-10.5 51.5t-28.5 42.5t-42.5 28.5t-51.5 10.5h-66v135h66q27 0 51.5 10.5t42.5 28.5t28.5 42.5t10.5 51.5t-10.5 51.5t-28.5 42.5
t-42.5 28.5t-51.5 10.5t-51.5 -10.5t-43 -28.5t-29 -42.5t-10.5 -51.5v-67h-133v67q0 27 -10.5 51.5t-28.5 42.5t-42.5 28.5t-52.5 10.5q-27 0 -51.5 -10.5t-42.5 -28.5t-28.5 -42.5t-10.5 -51.5t10.5 -51.5t28.5 -42.5t42.5 -28.5t51.5 -10.5h67zM221 200v-67
q0 -27 -19.5 -46.5t-47.5 -19.5q-27 0 -46.5 19.5t-19.5 46.5q0 28 19.5 47.5t46.5 19.5h67zM489 200h66q28 0 47.5 -19.5t19.5 -47.5q0 -27 -19.5 -46.5t-47.5 -19.5q-27 0 -46.5 19.5t-19.5 46.5v67zM489 467v67q0 27 19.5 47t46.5 20q28 0 47.5 -20t19.5 -47
q0 -28 -19.5 -47.5t-47.5 -19.5h-66z" />
    <glyph glyph-name="Delta" unicode="&#xe008;" horiz-adv-x="609" 
d="M130 683l-56 -41q9 -6 10.5 -19.5t1.5 -27.5v-205q0 -26 -12 -47h69q-13 20 -13 47v293zM522 678l-36 25l-465 -703l35 -26zM568 0l16 86h-1q-10 -14 -25.5 -28t-36.5 -14h-87l58 49t49 48t34 48t13 49q0 29 -9.5 49.5t-25 33.5t-35 19t-38.5 6q-35 0 -67.5 -18.5
t-52.5 -47.5l39 -37q8 23 26.5 41t54.5 18q26 0 45 -16t19 -48q0 -23 -16 -46.5t-38 -45t-45 -40.5l-37 -31l-18 -14.5t-23 -19.5t-19.5 -19.5t-8.5 -15.5t11 -6h218z" />
    <glyph glyph-name="nonbreakingspace" unicode="&#xe009;" horiz-adv-x="267" 
 />
    <glyph glyph-name="lozenge" unicode="&#xe00a;" horiz-adv-x="709" 
d="M354 0l334 333l-334 334l-333 -334zM77 333l277 278l278 -278l-278 -277z" />
    </font>
</defs>
</svg>
